<svg width="279" height="210" viewBox="0 0 279 210" fill="none" xmlns="http://www.w3.org/2000/svg">
<rect width="279" height="210" fill="#F9F6F4"/>
<g style="mix-blend-mode:multiply">
<mask id="mask0" mask-type="alpha" maskUnits="userSpaceOnUse" x="90" y="64" width="40" height="118">
<rect width="40" height="118" transform="matrix(-1 0 0 1 130 64)" fill="#C4C4C4"/>
</mask>
<g mask="url(#mask0)">
<line y1="-1" x2="4330.32" y2="-1" transform="matrix(0.707107 0.707107 0.707107 -0.707107 -1494 -2966)" stroke="#E36F1E" stroke-width="2"/>
<line y1="-1" x2="4330.32" y2="-1" transform="matrix(0.707107 0.707107 0.707107 -0.707107 -1494 -2666)" stroke="#E36F1E" stroke-width="2"/>
<line y1="-1" x2="4330.32" y2="-1" transform="matrix(0.707107 0.707107 0.707107 -0.707107 -1494 -2654)" stroke="#E36F1E" stroke-width="2"/>
<line y1="-1" x2="4330.32" y2="-1" transform="matrix(0.707107 0.707107 0.707107 -0.707107 -1494 -2906)" stroke="#E36F1E" stroke-width="2"/>
<line y1="-1" x2="4330.32" y2="-1" transform="matrix(0.707107 0.707107 0.707107 -0.707107 -1494 -2954)" stroke="#E36F1E" stroke-width="2"/>
<line y1="-1" x2="4330.32" y2="-1" transform="matrix(0.707107 0.707107 0.707107 -0.707107 -1494 -2942)" stroke="#E36F1E" stroke-width="2"/>
<line y1="-1" x2="4330.32" y2="-1" transform="matrix(0.707107 0.707107 0.707107 -0.707107 -1494 -2750)" stroke="#E36F1E" stroke-width="2"/>
<line y1="-1" x2="4330.32" y2="-1" transform="matrix(0.707107 0.707107 0.707107 -0.707107 -1494 -2834)" stroke="#E36F1E" stroke-width="2"/>
<line y1="-1" x2="4330.32" y2="-1" transform="matrix(0.707107 0.707107 0.707107 -0.707107 -1494 -2786)" stroke="#E36F1E" stroke-width="2"/>
<line y1="-1" x2="4330.32" y2="-1" transform="matrix(0.707107 0.707107 0.707107 -0.707107 -1494 -2678)" stroke="#E36F1E" stroke-width="2"/>
<line y1="-1" x2="4330.32" y2="-1" transform="matrix(0.707107 0.707107 0.707107 -0.707107 -1494 -2930)" stroke="#E36F1E" stroke-width="2"/>
<line y1="-1" x2="4330.32" y2="-1" transform="matrix(0.707107 0.707107 0.707107 -0.707107 -1494 -2618)" stroke="#E36F1E" stroke-width="2"/>
<line y1="-1" x2="4330.32" y2="-1" transform="matrix(0.707107 0.707107 0.707107 -0.707107 -1494 -2702)" stroke="#E36F1E" stroke-width="2"/>
<line y1="-1" x2="4330.32" y2="-1" transform="matrix(0.707107 0.707107 0.707107 -0.707107 -1494 -2870)" stroke="#E36F1E" stroke-width="2"/>
<line y1="-1" x2="4330.32" y2="-1" transform="matrix(0.707107 0.707107 0.707107 -0.707107 -1494 -2774)" stroke="#E36F1E" stroke-width="2"/>
<line y1="-1" x2="4330.32" y2="-1" transform="matrix(0.707107 0.707107 0.707107 -0.707107 -1494 -2978)" stroke="#E36F1E" stroke-width="2"/>
<line y1="-1" x2="4330.32" y2="-1" transform="matrix(0.707107 0.707107 0.707107 -0.707107 -1494 -2738)" stroke="#E36F1E" stroke-width="2"/>
<line y1="-1" x2="4330.32" y2="-1" transform="matrix(0.707107 0.707107 0.707107 -0.707107 -1494 -2726)" stroke="#E36F1E" stroke-width="2"/>
<line y1="-1" x2="4330.32" y2="-1" transform="matrix(0.707107 0.707107 0.707107 -0.707107 -1494 -2690)" stroke="#E36F1E" stroke-width="2"/>
<line y1="-1" x2="4330.32" y2="-1" transform="matrix(0.707107 0.707107 0.707107 -0.707107 -1494 -2798)" stroke="#E36F1E" stroke-width="2"/>
<line y1="-1" x2="4330.32" y2="-1" transform="matrix(0.707107 0.707107 0.707107 -0.707107 -1494 -2882)" stroke="#E36F1E" stroke-width="2"/>
<line y1="-1" x2="4330.32" y2="-1" transform="matrix(0.707107 0.707107 0.707107 -0.707107 -1494 -2894)" stroke="#E36F1E" stroke-width="2"/>
<line y1="-1" x2="4330.32" y2="-1" transform="matrix(0.707107 0.707107 0.707107 -0.707107 -1494 -2846)" stroke="#E36F1E" stroke-width="2"/>
<line y1="-1" x2="4330.32" y2="-1" transform="matrix(0.707107 0.707107 0.707107 -0.707107 -1494 -2822)" stroke="#E36F1E" stroke-width="2"/>
<line y1="-1" x2="4330.32" y2="-1" transform="matrix(0.707107 0.707107 0.707107 -0.707107 -1494 -2918)" stroke="#E36F1E" stroke-width="2"/>
<line y1="-1" x2="4330.32" y2="-1" transform="matrix(0.707107 0.707107 0.707107 -0.707107 -1494 -2714)" stroke="#E36F1E" stroke-width="2"/>
<line y1="-1" x2="4330.32" y2="-1" transform="matrix(0.707107 0.707107 0.707107 -0.707107 -1494 -2858)" stroke="#E36F1E" stroke-width="2"/>
<line y1="-1" x2="4330.32" y2="-1" transform="matrix(0.707107 0.707107 0.707107 -0.707107 -1494 -2990)" stroke="#E36F1E" stroke-width="2"/>
<line y1="-1" x2="4330.32" y2="-1" transform="matrix(0.707107 0.707107 0.707107 -0.707107 -1494 -2810)" stroke="#E36F1E" stroke-width="2"/>
<line y1="-1" x2="4330.32" y2="-1" transform="matrix(0.707107 0.707107 0.707107 -0.707107 -1494 -2630)" stroke="#E36F1E" stroke-width="2"/>
<line y1="-1" x2="4330.32" y2="-1" transform="matrix(0.707107 0.707107 0.707107 -0.707107 -1494 -2642)" stroke="#E36F1E" stroke-width="2"/>
<line y1="-1" x2="4330.32" y2="-1" transform="matrix(0.707107 0.707107 0.707107 -0.707107 -1494 -2762)" stroke="#E36F1E" stroke-width="2"/>
<line y1="-1" x2="4330.32" y2="-1" transform="matrix(0.707107 0.707107 0.707107 -0.707107 -1494 -2402)" stroke="#E36F1E" stroke-width="2"/>
<line y1="-1" x2="4330.32" y2="-1" transform="matrix(0.707107 0.707107 0.707107 -0.707107 -1494 -2102)" stroke="#E36F1E" stroke-width="2"/>
<line y1="-1" x2="4330.32" y2="-1" transform="matrix(0.707107 0.707107 0.707107 -0.707107 -1494 -2090)" stroke="#E36F1E" stroke-width="2"/>
<line y1="-1" x2="4330.32" y2="-1" transform="matrix(0.707107 0.707107 0.707107 -0.707107 -1494 -2606)" stroke="#E36F1E" stroke-width="2"/>
<line y1="-1" x2="4330.32" y2="-1" transform="matrix(0.707107 0.707107 0.707107 -0.707107 -1494 -2342)" stroke="#E36F1E" stroke-width="2"/>
<line y1="-1" x2="4330.32" y2="-1" transform="matrix(0.707107 0.707107 0.707107 -0.707107 -1494 -2534)" stroke="#E36F1E" stroke-width="2"/>
<line y1="-1" x2="4330.32" y2="-1" transform="matrix(0.707107 0.707107 0.707107 -0.707107 -1494 -2390)" stroke="#E36F1E" stroke-width="2"/>
<line y1="-1" x2="4330.32" y2="-1" transform="matrix(0.707107 0.707107 0.707107 -0.707107 -1494 -2378)" stroke="#E36F1E" stroke-width="2"/>
<line y1="-1" x2="4330.32" y2="-1" transform="matrix(0.707107 0.707107 0.707107 -0.707107 -1494 -2186)" stroke="#E36F1E" stroke-width="2"/>
<line y1="-1" x2="4330.32" y2="-1" transform="matrix(0.707107 0.707107 0.707107 -0.707107 -1494 -2438)" stroke="#E36F1E" stroke-width="2"/>
<line y1="-1" x2="4330.32" y2="-1" transform="matrix(0.707107 0.707107 0.707107 -0.707107 -1494 -2570)" stroke="#E36F1E" stroke-width="2"/>
<line y1="-1" x2="4330.32" y2="-1" transform="matrix(0.707107 0.707107 0.707107 -0.707107 -1494 -2486)" stroke="#E36F1E" stroke-width="2"/>
<line y1="-1" x2="4330.32" y2="-1" transform="matrix(0.707107 0.707107 0.707107 -0.707107 -1494 -2270)" stroke="#E36F1E" stroke-width="2"/>
<line y1="-1" x2="4330.32" y2="-1" transform="matrix(0.707107 0.707107 0.707107 -0.707107 -1494 -2522)" stroke="#E36F1E" stroke-width="2"/>
<line y1="-1" x2="4330.32" y2="-1" transform="matrix(0.707107 0.707107 0.707107 -0.707107 -1494 -2222)" stroke="#E36F1E" stroke-width="2"/>
<line y1="-1" x2="4330.32" y2="-1" transform="matrix(0.707107 0.707107 0.707107 -0.707107 -1494 -2114)" stroke="#E36F1E" stroke-width="2"/>
<line y1="-1" x2="4330.32" y2="-1" transform="matrix(0.707107 0.707107 0.707107 -0.707107 -1494 -2546)" stroke="#E36F1E" stroke-width="2"/>
<line y1="-1" x2="4330.32" y2="-1" transform="matrix(0.707107 0.707107 0.707107 -0.707107 -1494 -2450)" stroke="#E36F1E" stroke-width="2"/>
<line y1="-1" x2="4330.32" y2="-1" transform="matrix(0.707107 0.707107 0.707107 -0.707107 -1494 -2594)" stroke="#E36F1E" stroke-width="2"/>
<line y1="-1" x2="4330.32" y2="-1" transform="matrix(0.707107 0.707107 0.707107 -0.707107 -1494 -2366)" stroke="#E36F1E" stroke-width="2"/>
<line y1="-1" x2="4330.32" y2="-1" transform="matrix(0.707107 0.707107 0.707107 -0.707107 -1494 -2054)" stroke="#E36F1E" stroke-width="2"/>
<line y1="-1" x2="4330.32" y2="-1" transform="matrix(0.707107 0.707107 0.707107 -0.707107 -1494 -2498)" stroke="#E36F1E" stroke-width="2"/>
<line y1="-1" x2="4330.32" y2="-1" transform="matrix(0.707107 0.707107 0.707107 -0.707107 -1494 -2510)" stroke="#E36F1E" stroke-width="2"/>
<line y1="-1" x2="4330.32" y2="-1" transform="matrix(0.707107 0.707107 0.707107 -0.707107 -1494 -2138)" stroke="#E36F1E" stroke-width="2"/>
<line y1="-1" x2="4330.32" y2="-1" transform="matrix(0.707107 0.707107 0.707107 -0.707107 -1494 -2306)" stroke="#E36F1E" stroke-width="2"/>
<line y1="-1" x2="4330.32" y2="-1" transform="matrix(0.707107 0.707107 0.707107 -0.707107 -1494 -2558)" stroke="#E36F1E" stroke-width="2"/>
<line y1="-1" x2="4330.32" y2="-1" transform="matrix(0.707107 0.707107 0.707107 -0.707107 -1494 -2210)" stroke="#E36F1E" stroke-width="2"/>
<line y1="-1" x2="4330.32" y2="-1" transform="matrix(0.707107 0.707107 0.707107 -0.707107 -1494 -2414)" stroke="#E36F1E" stroke-width="2"/>
<line y1="-1" x2="4330.32" y2="-1" transform="matrix(0.707107 0.707107 0.707107 -0.707107 -1494 -2582)" stroke="#E36F1E" stroke-width="2"/>
<line y1="-1" x2="4330.32" y2="-1" transform="matrix(0.707107 0.707107 0.707107 -0.707107 -1494 -2174)" stroke="#E36F1E" stroke-width="2"/>
<line y1="-1" x2="4330.32" y2="-1" transform="matrix(0.707107 0.707107 0.707107 -0.707107 -1494 -2162)" stroke="#E36F1E" stroke-width="2"/>
<line y1="-1" x2="4330.32" y2="-1" transform="matrix(0.707107 0.707107 0.707107 -0.707107 -1494 -2126)" stroke="#E36F1E" stroke-width="2"/>
<line y1="-1" x2="4330.32" y2="-1" transform="matrix(0.707107 0.707107 0.707107 -0.707107 -1494 -2462)" stroke="#E36F1E" stroke-width="2"/>
<line y1="-1" x2="4330.32" y2="-1" transform="matrix(0.707107 0.707107 0.707107 -0.707107 -1494 -2234)" stroke="#E36F1E" stroke-width="2"/>
<line y1="-1" x2="4330.32" y2="-1" transform="matrix(0.707107 0.707107 0.707107 -0.707107 -1494 -2318)" stroke="#E36F1E" stroke-width="2"/>
<line y1="-1" x2="4330.32" y2="-1" transform="matrix(0.707107 0.707107 0.707107 -0.707107 -1494 -2330)" stroke="#E36F1E" stroke-width="2"/>
<line y1="-1" x2="4330.32" y2="-1" transform="matrix(0.707107 0.707107 0.707107 -0.707107 -1494 -2282)" stroke="#E36F1E" stroke-width="2"/>
<line y1="-1" x2="4330.32" y2="-1" transform="matrix(0.707107 0.707107 0.707107 -0.707107 -1494 -2474)" stroke="#E36F1E" stroke-width="2"/>
<line y1="-1" x2="4330.32" y2="-1" transform="matrix(0.707107 0.707107 0.707107 -0.707107 -1494 -2258)" stroke="#E36F1E" stroke-width="2"/>
<line y1="-1" x2="4330.32" y2="-1" transform="matrix(0.707107 0.707107 0.707107 -0.707107 -1494 -2354)" stroke="#E36F1E" stroke-width="2"/>
<line y1="-1" x2="4330.32" y2="-1" transform="matrix(0.707107 0.707107 0.707107 -0.707107 -1494 -2150)" stroke="#E36F1E" stroke-width="2"/>
<line y1="-1" x2="4330.32" y2="-1" transform="matrix(0.707107 0.707107 0.707107 -0.707107 -1494 -2294)" stroke="#E36F1E" stroke-width="2"/>
<line y1="-1" x2="4330.32" y2="-1" transform="matrix(0.707107 0.707107 0.707107 -0.707107 -1494 -2426)" stroke="#E36F1E" stroke-width="2"/>
<line y1="-1" x2="4330.32" y2="-1" transform="matrix(0.707107 0.707107 0.707107 -0.707107 -1494 -2246)" stroke="#E36F1E" stroke-width="2"/>
<line y1="-1" x2="4330.32" y2="-1" transform="matrix(0.707107 0.707107 0.707107 -0.707107 -1494 -2066)" stroke="#E36F1E" stroke-width="2"/>
<line y1="-1" x2="4330.32" y2="-1" transform="matrix(0.707107 0.707107 0.707107 -0.707107 -1494 -2078)" stroke="#E36F1E" stroke-width="2"/>
<line y1="-1" x2="4330.32" y2="-1" transform="matrix(0.707107 0.707107 0.707107 -0.707107 -1494 -2198)" stroke="#E36F1E" stroke-width="2"/>
<line y1="-1" x2="4330.32" y2="-1" transform="matrix(0.707107 0.707107 0.707107 -0.707107 -1494 -1838)" stroke="#E36F1E" stroke-width="2"/>
<line y1="-1" x2="4330.32" y2="-1" transform="matrix(0.707107 0.707107 0.707107 -0.707107 -1494 -1538)" stroke="#E36F1E" stroke-width="2"/>
<line y1="-1" x2="4330.32" y2="-1" transform="matrix(0.707107 0.707107 0.707107 -0.707107 -1494 -1526)" stroke="#E36F1E" stroke-width="2"/>
<line y1="-1" x2="4330.32" y2="-1" transform="matrix(0.707107 0.707107 0.707107 -0.707107 -1494 -2042)" stroke="#E36F1E" stroke-width="2"/>
<line y1="-1" x2="4330.32" y2="-1" transform="matrix(0.707107 0.707107 0.707107 -0.707107 -1494 -1778)" stroke="#E36F1E" stroke-width="2"/>
<line y1="-1" x2="4330.32" y2="-1" transform="matrix(0.707107 0.707107 0.707107 -0.707107 -1494 -1970)" stroke="#E36F1E" stroke-width="2"/>
<line y1="-1" x2="4330.32" y2="-1" transform="matrix(0.707107 0.707107 0.707107 -0.707107 -1494 -1826)" stroke="#E36F1E" stroke-width="2"/>
<line y1="-1" x2="4330.32" y2="-1" transform="matrix(0.707107 0.707107 0.707107 -0.707107 -1494 -1814)" stroke="#E36F1E" stroke-width="2"/>
<line y1="-1" x2="4330.32" y2="-1" transform="matrix(0.707107 0.707107 0.707107 -0.707107 -1494 -1622)" stroke="#E36F1E" stroke-width="2"/>
<line y1="-1" x2="4330.32" y2="-1" transform="matrix(0.707107 0.707107 0.707107 -0.707107 -1494 -1874)" stroke="#E36F1E" stroke-width="2"/>
<line y1="-1" x2="4330.32" y2="-1" transform="matrix(0.707107 0.707107 0.707107 -0.707107 -1494 -2006)" stroke="#E36F1E" stroke-width="2"/>
<line y1="-1" x2="4330.32" y2="-1" transform="matrix(0.707107 0.707107 0.707107 -0.707107 -1494 -1922)" stroke="#E36F1E" stroke-width="2"/>
<line y1="-1" x2="4330.32" y2="-1" transform="matrix(0.707107 0.707107 0.707107 -0.707107 -1494 -1706)" stroke="#E36F1E" stroke-width="2"/>
<line y1="-1" x2="4330.32" y2="-1" transform="matrix(0.707107 0.707107 0.707107 -0.707107 -1494 -1958)" stroke="#E36F1E" stroke-width="2"/>
<line y1="-1" x2="4330.32" y2="-1" transform="matrix(0.707107 0.707107 0.707107 -0.707107 -1494 -1658)" stroke="#E36F1E" stroke-width="2"/>
<line y1="-1" x2="4330.32" y2="-1" transform="matrix(0.707107 0.707107 0.707107 -0.707107 -1494 -1550)" stroke="#E36F1E" stroke-width="2"/>
<line y1="-1" x2="4330.32" y2="-1" transform="matrix(0.707107 0.707107 0.707107 -0.707107 -1494 -1982)" stroke="#E36F1E" stroke-width="2"/>
<line y1="-1" x2="4330.32" y2="-1" transform="matrix(0.707107 0.707107 0.707107 -0.707107 -1494 -1886)" stroke="#E36F1E" stroke-width="2"/>
<line y1="-1" x2="4330.32" y2="-1" transform="matrix(0.707107 0.707107 0.707107 -0.707107 -1494 -2030)" stroke="#E36F1E" stroke-width="2"/>
<line y1="-1" x2="4330.32" y2="-1" transform="matrix(0.707107 0.707107 0.707107 -0.707107 -1494 -1802)" stroke="#E36F1E" stroke-width="2"/>
<line y1="-1" x2="4330.32" y2="-1" transform="matrix(0.707107 0.707107 0.707107 -0.707107 -1494 -1490)" stroke="#E36F1E" stroke-width="2"/>
<line y1="-1" x2="4330.32" y2="-1" transform="matrix(0.707107 0.707107 0.707107 -0.707107 -1494 -1934)" stroke="#E36F1E" stroke-width="2"/>
<line y1="-1" x2="4330.32" y2="-1" transform="matrix(0.707107 0.707107 0.707107 -0.707107 -1494 -1946)" stroke="#E36F1E" stroke-width="2"/>
<line y1="-1" x2="4330.32" y2="-1" transform="matrix(0.707107 0.707107 0.707107 -0.707107 -1494 -1574)" stroke="#E36F1E" stroke-width="2"/>
<line y1="-1" x2="4330.32" y2="-1" transform="matrix(0.707107 0.707107 0.707107 -0.707107 -1494 -1742)" stroke="#E36F1E" stroke-width="2"/>
<line y1="-1" x2="4330.32" y2="-1" transform="matrix(0.707107 0.707107 0.707107 -0.707107 -1494 -1994)" stroke="#E36F1E" stroke-width="2"/>
<line y1="-1" x2="4330.32" y2="-1" transform="matrix(0.707107 0.707107 0.707107 -0.707107 -1494 -1646)" stroke="#E36F1E" stroke-width="2"/>
<line y1="-1" x2="4330.32" y2="-1" transform="matrix(0.707107 0.707107 0.707107 -0.707107 -1494 -1850)" stroke="#E36F1E" stroke-width="2"/>
<line y1="-1" x2="4330.32" y2="-1" transform="matrix(0.707107 0.707107 0.707107 -0.707107 -1494 -2018)" stroke="#E36F1E" stroke-width="2"/>
<line y1="-1" x2="4330.32" y2="-1" transform="matrix(0.707107 0.707107 0.707107 -0.707107 -1494 -1610)" stroke="#E36F1E" stroke-width="2"/>
<line y1="-1" x2="4330.32" y2="-1" transform="matrix(0.707107 0.707107 0.707107 -0.707107 -1494 -1598)" stroke="#E36F1E" stroke-width="2"/>
<line y1="-1" x2="4330.32" y2="-1" transform="matrix(0.707107 0.707107 0.707107 -0.707107 -1494 -1562)" stroke="#E36F1E" stroke-width="2"/>
<line y1="-1" x2="4330.32" y2="-1" transform="matrix(0.707107 0.707107 0.707107 -0.707107 -1494 -1898)" stroke="#E36F1E" stroke-width="2"/>
<line y1="-1" x2="4330.32" y2="-1" transform="matrix(0.707107 0.707107 0.707107 -0.707107 -1494 -1670)" stroke="#E36F1E" stroke-width="2"/>
<line y1="-1" x2="4330.32" y2="-1" transform="matrix(0.707107 0.707107 0.707107 -0.707107 -1494 -1754)" stroke="#E36F1E" stroke-width="2"/>
<line y1="-1" x2="4330.32" y2="-1" transform="matrix(0.707107 0.707107 0.707107 -0.707107 -1494 -1766)" stroke="#E36F1E" stroke-width="2"/>
<line y1="-1" x2="4330.32" y2="-1" transform="matrix(0.707107 0.707107 0.707107 -0.707107 -1494 -1718)" stroke="#E36F1E" stroke-width="2"/>
<line y1="-1" x2="4330.32" y2="-1" transform="matrix(0.707107 0.707107 0.707107 -0.707107 -1494 -1910)" stroke="#E36F1E" stroke-width="2"/>
<line y1="-1" x2="4330.32" y2="-1" transform="matrix(0.707107 0.707107 0.707107 -0.707107 -1494 -1694)" stroke="#E36F1E" stroke-width="2"/>
<line y1="-1" x2="4330.32" y2="-1" transform="matrix(0.707107 0.707107 0.707107 -0.707107 -1494 -1790)" stroke="#E36F1E" stroke-width="2"/>
<line y1="-1" x2="4330.32" y2="-1" transform="matrix(0.707107 0.707107 0.707107 -0.707107 -1494 -1586)" stroke="#E36F1E" stroke-width="2"/>
<line y1="-1" x2="4330.32" y2="-1" transform="matrix(0.707107 0.707107 0.707107 -0.707107 -1494 -1730)" stroke="#E36F1E" stroke-width="2"/>
<line y1="-1" x2="4330.32" y2="-1" transform="matrix(0.707107 0.707107 0.707107 -0.707107 -1494 -1862)" stroke="#E36F1E" stroke-width="2"/>
<line y1="-1" x2="4330.32" y2="-1" transform="matrix(0.707107 0.707107 0.707107 -0.707107 -1494 -1682)" stroke="#E36F1E" stroke-width="2"/>
<line y1="-1" x2="4330.32" y2="-1" transform="matrix(0.707107 0.707107 0.707107 -0.707107 -1494 -1502)" stroke="#E36F1E" stroke-width="2"/>
<line y1="-1" x2="4330.32" y2="-1" transform="matrix(0.707107 0.707107 0.707107 -0.707107 -1494 -1514)" stroke="#E36F1E" stroke-width="2"/>
<line y1="-1" x2="4330.32" y2="-1" transform="matrix(0.707107 0.707107 0.707107 -0.707107 -1494 -1634)" stroke="#E36F1E" stroke-width="2"/>
<line y1="-1" x2="4330.32" y2="-1" transform="matrix(0.707107 0.707107 0.707107 -0.707107 -1494 -1274)" stroke="#E36F1E" stroke-width="2"/>
<line y1="-1" x2="4330.32" y2="-1" transform="matrix(0.707107 0.707107 0.707107 -0.707107 -1494 -974)" stroke="#E36F1E" stroke-width="2"/>
<line y1="-1" x2="4330.32" y2="-1" transform="matrix(0.707107 0.707107 0.707107 -0.707107 -1494 -962)" stroke="#E36F1E" stroke-width="2"/>
<line y1="-1" x2="4330.32" y2="-1" transform="matrix(0.707107 0.707107 0.707107 -0.707107 -1494 -1478)" stroke="#E36F1E" stroke-width="2"/>
<line y1="-1" x2="4330.32" y2="-1" transform="matrix(0.707107 0.707107 0.707107 -0.707107 -1494 -1214)" stroke="#E36F1E" stroke-width="2"/>
<line y1="-1" x2="4330.32" y2="-1" transform="matrix(0.707107 0.707107 0.707107 -0.707107 -1494 -1406)" stroke="#E36F1E" stroke-width="2"/>
<line y1="-1" x2="4330.32" y2="-1" transform="matrix(0.707107 0.707107 0.707107 -0.707107 -1494 -1262)" stroke="#E36F1E" stroke-width="2"/>
<line y1="-1" x2="4330.32" y2="-1" transform="matrix(0.707107 0.707107 0.707107 -0.707107 -1494 -1250)" stroke="#E36F1E" stroke-width="2"/>
<line y1="-1" x2="4330.32" y2="-1" transform="matrix(0.707107 0.707107 0.707107 -0.707107 -1494 -1058)" stroke="#E36F1E" stroke-width="2"/>
<line y1="-1" x2="4330.32" y2="-1" transform="matrix(0.707107 0.707107 0.707107 -0.707107 -1494 -1310)" stroke="#E36F1E" stroke-width="2"/>
<line y1="-1" x2="4330.32" y2="-1" transform="matrix(0.707107 0.707107 0.707107 -0.707107 -1494 -1442)" stroke="#E36F1E" stroke-width="2"/>
<line y1="-1" x2="4330.32" y2="-1" transform="matrix(0.707107 0.707107 0.707107 -0.707107 -1494 -1358)" stroke="#E36F1E" stroke-width="2"/>
<line y1="-1" x2="4330.32" y2="-1" transform="matrix(0.707107 0.707107 0.707107 -0.707107 -1494 -1142)" stroke="#E36F1E" stroke-width="2"/>
<line y1="-1" x2="4330.32" y2="-1" transform="matrix(0.707107 0.707107 0.707107 -0.707107 -1494 -1394)" stroke="#E36F1E" stroke-width="2"/>
<line y1="-1" x2="4330.32" y2="-1" transform="matrix(0.707107 0.707107 0.707107 -0.707107 -1494 -1094)" stroke="#E36F1E" stroke-width="2"/>
<line y1="-1" x2="4330.32" y2="-1" transform="matrix(0.707107 0.707107 0.707107 -0.707107 -1494 -986)" stroke="#E36F1E" stroke-width="2"/>
<line y1="-1" x2="4330.32" y2="-1" transform="matrix(0.707107 0.707107 0.707107 -0.707107 -1494 -1418)" stroke="#E36F1E" stroke-width="2"/>
<line y1="-1" x2="4330.32" y2="-1" transform="matrix(0.707107 0.707107 0.707107 -0.707107 -1494 -1322)" stroke="#E36F1E" stroke-width="2"/>
<line y1="-1" x2="4330.32" y2="-1" transform="matrix(0.707107 0.707107 0.707107 -0.707107 -1494 -1466)" stroke="#E36F1E" stroke-width="2"/>
<line y1="-1" x2="4330.32" y2="-1" transform="matrix(0.707107 0.707107 0.707107 -0.707107 -1494 -1238)" stroke="#E36F1E" stroke-width="2"/>
<line y1="-1" x2="4330.32" y2="-1" transform="matrix(0.707107 0.707107 0.707107 -0.707107 -1494 -926)" stroke="#E36F1E" stroke-width="2"/>
<line y1="-1" x2="4330.32" y2="-1" transform="matrix(0.707107 0.707107 0.707107 -0.707107 -1494 -1370)" stroke="#E36F1E" stroke-width="2"/>
<line y1="-1" x2="4330.32" y2="-1" transform="matrix(0.707107 0.707107 0.707107 -0.707107 -1494 -1382)" stroke="#E36F1E" stroke-width="2"/>
<line y1="-1" x2="4330.32" y2="-1" transform="matrix(0.707107 0.707107 0.707107 -0.707107 -1494 -1010)" stroke="#E36F1E" stroke-width="2"/>
<line y1="-1" x2="4330.32" y2="-1" transform="matrix(0.707107 0.707107 0.707107 -0.707107 -1494 -1178)" stroke="#E36F1E" stroke-width="2"/>
<line y1="-1" x2="4330.32" y2="-1" transform="matrix(0.707107 0.707107 0.707107 -0.707107 -1494 -1430)" stroke="#E36F1E" stroke-width="2"/>
<line y1="-1" x2="4330.32" y2="-1" transform="matrix(0.707107 0.707107 0.707107 -0.707107 -1494 -1082)" stroke="#E36F1E" stroke-width="2"/>
<line y1="-1" x2="4330.32" y2="-1" transform="matrix(0.707107 0.707107 0.707107 -0.707107 -1494 -1286)" stroke="#E36F1E" stroke-width="2"/>
<line y1="-1" x2="4330.32" y2="-1" transform="matrix(0.707107 0.707107 0.707107 -0.707107 -1494 -1454)" stroke="#E36F1E" stroke-width="2"/>
<line y1="-1" x2="4330.32" y2="-1" transform="matrix(0.707107 0.707107 0.707107 -0.707107 -1494 -1046)" stroke="#E36F1E" stroke-width="2"/>
<line y1="-1" x2="4330.32" y2="-1" transform="matrix(0.707107 0.707107 0.707107 -0.707107 -1494 -1034)" stroke="#E36F1E" stroke-width="2"/>
<line y1="-1" x2="4330.32" y2="-1" transform="matrix(0.707107 0.707107 0.707107 -0.707107 -1494 -998)" stroke="#E36F1E" stroke-width="2"/>
<line y1="-1" x2="4330.32" y2="-1" transform="matrix(0.707107 0.707107 0.707107 -0.707107 -1494 -1334)" stroke="#E36F1E" stroke-width="2"/>
<line y1="-1" x2="4330.32" y2="-1" transform="matrix(0.707107 0.707107 0.707107 -0.707107 -1494 -1106)" stroke="#E36F1E" stroke-width="2"/>
<line y1="-1" x2="4330.32" y2="-1" transform="matrix(0.707107 0.707107 0.707107 -0.707107 -1494 -1190)" stroke="#E36F1E" stroke-width="2"/>
<line y1="-1" x2="4330.32" y2="-1" transform="matrix(0.707107 0.707107 0.707107 -0.707107 -1494 -1202)" stroke="#E36F1E" stroke-width="2"/>
<line y1="-1" x2="4330.32" y2="-1" transform="matrix(0.707107 0.707107 0.707107 -0.707107 -1494 -1154)" stroke="#E36F1E" stroke-width="2"/>
<line y1="-1" x2="4330.32" y2="-1" transform="matrix(0.707107 0.707107 0.707107 -0.707107 -1494 -1346)" stroke="#E36F1E" stroke-width="2"/>
<line y1="-1" x2="4330.32" y2="-1" transform="matrix(0.707107 0.707107 0.707107 -0.707107 -1494 -1130)" stroke="#E36F1E" stroke-width="2"/>
<line y1="-1" x2="4330.32" y2="-1" transform="matrix(0.707107 0.707107 0.707107 -0.707107 -1494 -1226)" stroke="#E36F1E" stroke-width="2"/>
<line y1="-1" x2="4330.32" y2="-1" transform="matrix(0.707107 0.707107 0.707107 -0.707107 -1494 -1022)" stroke="#E36F1E" stroke-width="2"/>
<line y1="-1" x2="4330.32" y2="-1" transform="matrix(0.707107 0.707107 0.707107 -0.707107 -1494 -1166)" stroke="#E36F1E" stroke-width="2"/>
<line y1="-1" x2="4330.32" y2="-1" transform="matrix(0.707107 0.707107 0.707107 -0.707107 -1494 -1298)" stroke="#E36F1E" stroke-width="2"/>
<line y1="-1" x2="4330.32" y2="-1" transform="matrix(0.707107 0.707107 0.707107 -0.707107 -1494 -1118)" stroke="#E36F1E" stroke-width="2"/>
<line y1="-1" x2="4330.32" y2="-1" transform="matrix(0.707107 0.707107 0.707107 -0.707107 -1494 -938)" stroke="#E36F1E" stroke-width="2"/>
<line y1="-1" x2="4330.32" y2="-1" transform="matrix(0.707107 0.707107 0.707107 -0.707107 -1494 -950)" stroke="#E36F1E" stroke-width="2"/>
<line y1="-1" x2="4330.32" y2="-1" transform="matrix(0.707107 0.707107 0.707107 -0.707107 -1494 -1070)" stroke="#E36F1E" stroke-width="2"/>
<line y1="-1" x2="4330.32" y2="-1" transform="matrix(0.707107 0.707107 0.707107 -0.707107 -1494 -710)" stroke="#E36F1E" stroke-width="2"/>
<line y1="-1" x2="4330.32" y2="-1" transform="matrix(0.707107 0.707107 0.707107 -0.707107 -1494 -410)" stroke="#E36F1E" stroke-width="2"/>
<line y1="-1" x2="4330.32" y2="-1" transform="matrix(0.707107 0.707107 0.707107 -0.707107 -1494 -398)" stroke="#E36F1E" stroke-width="2"/>
<line y1="-1" x2="4330.32" y2="-1" transform="matrix(0.707107 0.707107 0.707107 -0.707107 -1494 -914)" stroke="#E36F1E" stroke-width="2"/>
<line y1="-1" x2="4330.32" y2="-1" transform="matrix(0.707107 0.707107 0.707107 -0.707107 -1494 -650)" stroke="#E36F1E" stroke-width="2"/>
<line y1="-1" x2="4330.32" y2="-1" transform="matrix(0.707107 0.707107 0.707107 -0.707107 -1494 -842)" stroke="#E36F1E" stroke-width="2"/>
<line y1="-1" x2="4330.32" y2="-1" transform="matrix(0.707107 0.707107 0.707107 -0.707107 -1494 -698)" stroke="#E36F1E" stroke-width="2"/>
<line y1="-1" x2="4330.32" y2="-1" transform="matrix(0.707107 0.707107 0.707107 -0.707107 -1494 -686)" stroke="#E36F1E" stroke-width="2"/>
<line y1="-1" x2="4330.32" y2="-1" transform="matrix(0.707107 0.707107 0.707107 -0.707107 -1494 -494)" stroke="#E36F1E" stroke-width="2"/>
<line y1="-1" x2="4330.32" y2="-1" transform="matrix(0.707107 0.707107 0.707107 -0.707107 -1494 -746)" stroke="#E36F1E" stroke-width="2"/>
<line y1="-1" x2="4330.32" y2="-1" transform="matrix(0.707107 0.707107 0.707107 -0.707107 -1494 -878)" stroke="#E36F1E" stroke-width="2"/>
<line y1="-1" x2="4330.32" y2="-1" transform="matrix(0.707107 0.707107 0.707107 -0.707107 -1494 -794)" stroke="#E36F1E" stroke-width="2"/>
<line y1="-1" x2="4330.32" y2="-1" transform="matrix(0.707107 0.707107 0.707107 -0.707107 -1494 -578)" stroke="#E36F1E" stroke-width="2"/>
<line y1="-1" x2="4330.32" y2="-1" transform="matrix(0.707107 0.707107 0.707107 -0.707107 -1494 -830)" stroke="#E36F1E" stroke-width="2"/>
<line y1="-1" x2="4330.32" y2="-1" transform="matrix(0.707107 0.707107 0.707107 -0.707107 -1494 -530)" stroke="#E36F1E" stroke-width="2"/>
<line y1="-1" x2="4330.32" y2="-1" transform="matrix(0.707107 0.707107 0.707107 -0.707107 -1494 -422)" stroke="#E36F1E" stroke-width="2"/>
<line y1="-1" x2="4330.32" y2="-1" transform="matrix(0.707107 0.707107 0.707107 -0.707107 -1494 -854)" stroke="#E36F1E" stroke-width="2"/>
<line y1="-1" x2="4330.32" y2="-1" transform="matrix(0.707107 0.707107 0.707107 -0.707107 -1494 -758)" stroke="#E36F1E" stroke-width="2"/>
<line y1="-1" x2="4330.32" y2="-1" transform="matrix(0.707107 0.707107 0.707107 -0.707107 -1494 -902)" stroke="#E36F1E" stroke-width="2"/>
<line y1="-1" x2="4330.32" y2="-1" transform="matrix(0.707107 0.707107 0.707107 -0.707107 -1494 -674)" stroke="#E36F1E" stroke-width="2"/>
<line y1="-1" x2="4330.32" y2="-1" transform="matrix(0.707107 0.707107 0.707107 -0.707107 -1494 -362)" stroke="#E36F1E" stroke-width="2"/>
<line y1="-1" x2="4330.32" y2="-1" transform="matrix(0.707107 0.707107 0.707107 -0.707107 -1494 -806)" stroke="#E36F1E" stroke-width="2"/>
<line y1="-1" x2="4330.32" y2="-1" transform="matrix(0.707107 0.707107 0.707107 -0.707107 -1494 -818)" stroke="#E36F1E" stroke-width="2"/>
<line y1="-1" x2="4330.32" y2="-1" transform="matrix(0.707107 0.707107 0.707107 -0.707107 -1494 -446)" stroke="#E36F1E" stroke-width="2"/>
<line y1="-1" x2="4330.32" y2="-1" transform="matrix(0.707107 0.707107 0.707107 -0.707107 -1494 -614)" stroke="#E36F1E" stroke-width="2"/>
<line y1="-1" x2="4330.32" y2="-1" transform="matrix(0.707107 0.707107 0.707107 -0.707107 -1494 -866)" stroke="#E36F1E" stroke-width="2"/>
<line y1="-1" x2="4330.32" y2="-1" transform="matrix(0.707107 0.707107 0.707107 -0.707107 -1494 -518)" stroke="#E36F1E" stroke-width="2"/>
<line y1="-1" x2="4330.32" y2="-1" transform="matrix(0.707107 0.707107 0.707107 -0.707107 -1494 -722)" stroke="#E36F1E" stroke-width="2"/>
<line y1="-1" x2="4330.32" y2="-1" transform="matrix(0.707107 0.707107 0.707107 -0.707107 -1494 -890)" stroke="#E36F1E" stroke-width="2"/>
<line y1="-1" x2="4330.32" y2="-1" transform="matrix(0.707107 0.707107 0.707107 -0.707107 -1494 -482)" stroke="#E36F1E" stroke-width="2"/>
<line y1="-1" x2="4330.32" y2="-1" transform="matrix(0.707107 0.707107 0.707107 -0.707107 -1494 -470)" stroke="#E36F1E" stroke-width="2"/>
<line y1="-1" x2="4330.32" y2="-1" transform="matrix(0.707107 0.707107 0.707107 -0.707107 -1494 -434)" stroke="#E36F1E" stroke-width="2"/>
<line y1="-1" x2="4330.32" y2="-1" transform="matrix(0.707107 0.707107 0.707107 -0.707107 -1494 -770)" stroke="#E36F1E" stroke-width="2"/>
<line y1="-1" x2="4330.32" y2="-1" transform="matrix(0.707107 0.707107 0.707107 -0.707107 -1494 -542)" stroke="#E36F1E" stroke-width="2"/>
<line y1="-1" x2="4330.32" y2="-1" transform="matrix(0.707107 0.707107 0.707107 -0.707107 -1494 -626)" stroke="#E36F1E" stroke-width="2"/>
<line y1="-1" x2="4330.32" y2="-1" transform="matrix(0.707107 0.707107 0.707107 -0.707107 -1494 -638)" stroke="#E36F1E" stroke-width="2"/>
<line y1="-1" x2="4330.32" y2="-1" transform="matrix(0.707107 0.707107 0.707107 -0.707107 -1494 -590)" stroke="#E36F1E" stroke-width="2"/>
<line y1="-1" x2="4330.32" y2="-1" transform="matrix(0.707107 0.707107 0.707107 -0.707107 -1494 -782)" stroke="#E36F1E" stroke-width="2"/>
<line y1="-1" x2="4330.32" y2="-1" transform="matrix(0.707107 0.707107 0.707107 -0.707107 -1494 -566)" stroke="#E36F1E" stroke-width="2"/>
<line y1="-1" x2="4330.32" y2="-1" transform="matrix(0.707107 0.707107 0.707107 -0.707107 -1494 -662)" stroke="#E36F1E" stroke-width="2"/>
<line y1="-1" x2="4330.32" y2="-1" transform="matrix(0.707107 0.707107 0.707107 -0.707107 -1494 -458)" stroke="#E36F1E" stroke-width="2"/>
<line y1="-1" x2="4330.32" y2="-1" transform="matrix(0.707107 0.707107 0.707107 -0.707107 -1494 -602)" stroke="#E36F1E" stroke-width="2"/>
<line y1="-1" x2="4330.32" y2="-1" transform="matrix(0.707107 0.707107 0.707107 -0.707107 -1494 -734)" stroke="#E36F1E" stroke-width="2"/>
<line y1="-1" x2="4330.32" y2="-1" transform="matrix(0.707107 0.707107 0.707107 -0.707107 -1494 -554)" stroke="#E36F1E" stroke-width="2"/>
<line y1="-1" x2="4330.32" y2="-1" transform="matrix(0.707107 0.707107 0.707107 -0.707107 -1494 -374)" stroke="#E36F1E" stroke-width="2"/>
<line y1="-1" x2="4330.32" y2="-1" transform="matrix(0.707107 0.707107 0.707107 -0.707107 -1494 -386)" stroke="#E36F1E" stroke-width="2"/>
<line y1="-1" x2="4330.32" y2="-1" transform="matrix(0.707107 0.707107 0.707107 -0.707107 -1494 -506)" stroke="#E36F1E" stroke-width="2"/>
<line y1="-1" x2="4330.32" y2="-1" transform="matrix(0.707107 0.707107 0.707107 -0.707107 -1494 -146)" stroke="#E36F1E" stroke-width="2"/>
<line y1="-1" x2="4330.32" y2="-1" transform="matrix(0.707107 0.707107 0.707107 -0.707107 -1494 154)" stroke="#E36F1E" stroke-width="2"/>
<line y1="-1" x2="4330.32" y2="-1" transform="matrix(0.707107 0.707107 0.707107 -0.707107 -1494 166)" stroke="#E36F1E" stroke-width="2"/>
<line y1="-1" x2="4330.32" y2="-1" transform="matrix(0.707107 0.707107 0.707107 -0.707107 -1494 -350)" stroke="#E36F1E" stroke-width="2"/>
<line y1="-1" x2="4330.32" y2="-1" transform="matrix(0.707107 0.707107 0.707107 -0.707107 -1494 -86)" stroke="#E36F1E" stroke-width="2"/>
<line y1="-1" x2="4330.32" y2="-1" transform="matrix(0.707107 0.707107 0.707107 -0.707107 -1494 -278)" stroke="#E36F1E" stroke-width="2"/>
<line y1="-1" x2="4330.32" y2="-1" transform="matrix(0.707107 0.707107 0.707107 -0.707107 -1494 -134)" stroke="#E36F1E" stroke-width="2"/>
<line y1="-1" x2="4330.32" y2="-1" transform="matrix(0.707107 0.707107 0.707107 -0.707107 -1494 -122)" stroke="#E36F1E" stroke-width="2"/>
<line y1="-1" x2="4330.32" y2="-1" transform="matrix(0.707107 0.707107 0.707107 -0.707107 -1494 70)" stroke="#E36F1E" stroke-width="2"/>
<line y1="-1" x2="4330.32" y2="-1" transform="matrix(0.707107 0.707107 0.707107 -0.707107 -1494 -182)" stroke="#E36F1E" stroke-width="2"/>
<line y1="-1" x2="4330.32" y2="-1" transform="matrix(0.707107 0.707107 0.707107 -0.707107 -1494 -314)" stroke="#E36F1E" stroke-width="2"/>
<line y1="-1" x2="4330.32" y2="-1" transform="matrix(0.707107 0.707107 0.707107 -0.707107 -1494 -230)" stroke="#E36F1E" stroke-width="2"/>
<line y1="-1" x2="4330.32" y2="-1" transform="matrix(0.707107 0.707107 0.707107 -0.707107 -1494 -14)" stroke="#E36F1E" stroke-width="2"/>
<line y1="-1" x2="4330.32" y2="-1" transform="matrix(0.707107 0.707107 0.707107 -0.707107 -1494 -266)" stroke="#E36F1E" stroke-width="2"/>
<line y1="-1" x2="4330.32" y2="-1" transform="matrix(0.707107 0.707107 0.707107 -0.707107 -1494 34)" stroke="#E36F1E" stroke-width="2"/>
<line y1="-1" x2="4330.32" y2="-1" transform="matrix(0.707107 0.707107 0.707107 -0.707107 -1494 142)" stroke="#E36F1E" stroke-width="2"/>
<line y1="-1" x2="4330.32" y2="-1" transform="matrix(0.707107 0.707107 0.707107 -0.707107 -1494 -290)" stroke="#E36F1E" stroke-width="2"/>
<line y1="-1" x2="4330.32" y2="-1" transform="matrix(0.707107 0.707107 0.707107 -0.707107 -1494 -194)" stroke="#E36F1E" stroke-width="2"/>
<line y1="-1" x2="4330.32" y2="-1" transform="matrix(0.707107 0.707107 0.707107 -0.707107 -1494 -338)" stroke="#E36F1E" stroke-width="2"/>
<line y1="-1" x2="4330.32" y2="-1" transform="matrix(0.707107 0.707107 0.707107 -0.707107 -1494 -110)" stroke="#E36F1E" stroke-width="2"/>
<line y1="-1" x2="4330.32" y2="-1" transform="matrix(0.707107 0.707107 0.707107 -0.707107 -1494 -242)" stroke="#E36F1E" stroke-width="2"/>
<line y1="-1" x2="4330.32" y2="-1" transform="matrix(0.707107 0.707107 0.707107 -0.707107 -1494 -254)" stroke="#E36F1E" stroke-width="2"/>
<line y1="-1" x2="4330.32" y2="-1" transform="matrix(0.707107 0.707107 0.707107 -0.707107 -1494 118)" stroke="#E36F1E" stroke-width="2"/>
<line y1="-1" x2="4330.32" y2="-1" transform="matrix(0.707107 0.707107 0.707107 -0.707107 -1494 -50)" stroke="#E36F1E" stroke-width="2"/>
<line y1="-1" x2="4330.32" y2="-1" transform="matrix(0.707107 0.707107 0.707107 -0.707107 -1494 -302)" stroke="#E36F1E" stroke-width="2"/>
<line y1="-1" x2="4330.32" y2="-1" transform="matrix(0.707107 0.707107 0.707107 -0.707107 -1494 46)" stroke="#E36F1E" stroke-width="2"/>
<line y1="-1" x2="4330.32" y2="-1" transform="matrix(0.707107 0.707107 0.707107 -0.707107 -1494 -158)" stroke="#E36F1E" stroke-width="2"/>
<line y1="-1" x2="4330.32" y2="-1" transform="matrix(0.707107 0.707107 0.707107 -0.707107 -1494 -326)" stroke="#E36F1E" stroke-width="2"/>
<line y1="-1" x2="4330.32" y2="-1" transform="matrix(0.707107 0.707107 0.707107 -0.707107 -1494 82)" stroke="#E36F1E" stroke-width="2"/>
<line y1="-1" x2="4330.32" y2="-1" transform="matrix(0.707107 0.707107 0.707107 -0.707107 -1494 94)" stroke="#E36F1E" stroke-width="2"/>
<line y1="-1" x2="4330.32" y2="-1" transform="matrix(0.707107 0.707107 0.707107 -0.707107 -1494 130)" stroke="#E36F1E" stroke-width="2"/>
<line y1="-1" x2="4330.32" y2="-1" transform="matrix(0.707107 0.707107 0.707107 -0.707107 -1494 -206)" stroke="#E36F1E" stroke-width="2"/>
<line y1="-1" x2="4330.32" y2="-1" transform="matrix(0.707107 0.707107 0.707107 -0.707107 -1494 22)" stroke="#E36F1E" stroke-width="2"/>
<line y1="-1" x2="4330.32" y2="-1" transform="matrix(0.707107 0.707107 0.707107 -0.707107 -1494 -62)" stroke="#E36F1E" stroke-width="2"/>
<line y1="-1" x2="4330.32" y2="-1" transform="matrix(0.707107 0.707107 0.707107 -0.707107 -1494 -74)" stroke="#E36F1E" stroke-width="2"/>
<line y1="-1" x2="4330.32" y2="-1" transform="matrix(0.707107 0.707107 0.707107 -0.707107 -1494 -26)" stroke="#E36F1E" stroke-width="2"/>
<line y1="-1" x2="4330.32" y2="-1" transform="matrix(0.707107 0.707107 0.707107 -0.707107 -1494 -218)" stroke="#E36F1E" stroke-width="2"/>
<line y1="-1" x2="4330.32" y2="-1" transform="matrix(0.707107 0.707107 0.707107 -0.707107 -1494 -2)" stroke="#E36F1E" stroke-width="2"/>
<line y1="-1" x2="4330.32" y2="-1" transform="matrix(0.707107 0.707107 0.707107 -0.707107 -1494 -98)" stroke="#E36F1E" stroke-width="2"/>
<line y1="-1" x2="4330.32" y2="-1" transform="matrix(0.707107 0.707107 0.707107 -0.707107 -1494 106)" stroke="#E36F1E" stroke-width="2"/>
<line y1="-1" x2="4330.32" y2="-1" transform="matrix(0.707107 0.707107 0.707107 -0.707107 -1494 -38)" stroke="#E36F1E" stroke-width="2"/>
<line y1="-1" x2="4330.32" y2="-1" transform="matrix(0.707107 0.707107 0.707107 -0.707107 -1494 -170)" stroke="#E36F1E" stroke-width="2"/>
<line y1="-1" x2="4330.32" y2="-1" transform="matrix(0.707107 0.707107 0.707107 -0.707107 -1494 10)" stroke="#E36F1E" stroke-width="2"/>
<line y1="-1" x2="4330.32" y2="-1" transform="matrix(0.707107 0.707107 0.707107 -0.707107 -1494 178)" stroke="#E36F1E" stroke-width="2"/>
<line y1="-1" x2="4330.32" y2="-1" transform="matrix(0.707107 0.707107 0.707107 -0.707107 -1494 58)" stroke="#E36F1E" stroke-width="2"/>
</g>
</g>
<g style="mix-blend-mode:multiply">
<mask id="mask1" mask-type="alpha" maskUnits="userSpaceOnUse" x="196" y="29" width="40" height="153">
<rect width="40" height="153" transform="matrix(-1 0 0 1 236 29)" fill="#C4C4C4"/>
</mask>
<g mask="url(#mask1)">
<line y1="-1" x2="4330.32" y2="-1" transform="matrix(0.707107 0.707107 0.707107 -0.707107 -1388 -2966)" stroke="#E36F1E" stroke-width="2"/>
<line y1="-1" x2="4330.32" y2="-1" transform="matrix(0.707107 0.707107 0.707107 -0.707107 -1388 -2666)" stroke="#E36F1E" stroke-width="2"/>
<line y1="-1" x2="4330.32" y2="-1" transform="matrix(0.707107 0.707107 0.707107 -0.707107 -1388 -2654)" stroke="#E36F1E" stroke-width="2"/>
<line y1="-1" x2="4330.32" y2="-1" transform="matrix(0.707107 0.707107 0.707107 -0.707107 -1388 -2906)" stroke="#E36F1E" stroke-width="2"/>
<line y1="-1" x2="4330.32" y2="-1" transform="matrix(0.707107 0.707107 0.707107 -0.707107 -1388 -2954)" stroke="#E36F1E" stroke-width="2"/>
<line y1="-1" x2="4330.32" y2="-1" transform="matrix(0.707107 0.707107 0.707107 -0.707107 -1388 -2942)" stroke="#E36F1E" stroke-width="2"/>
<line y1="-1" x2="4330.32" y2="-1" transform="matrix(0.707107 0.707107 0.707107 -0.707107 -1388 -2750)" stroke="#E36F1E" stroke-width="2"/>
<line y1="-1" x2="4330.32" y2="-1" transform="matrix(0.707107 0.707107 0.707107 -0.707107 -1388 -3002)" stroke="#E36F1E" stroke-width="2"/>
<line y1="-1" x2="4330.32" y2="-1" transform="matrix(0.707107 0.707107 0.707107 -0.707107 -1388 -2834)" stroke="#E36F1E" stroke-width="2"/>
<line y1="-1" x2="4330.32" y2="-1" transform="matrix(0.707107 0.707107 0.707107 -0.707107 -1388 -2786)" stroke="#E36F1E" stroke-width="2"/>
<line y1="-1" x2="4330.32" y2="-1" transform="matrix(0.707107 0.707107 0.707107 -0.707107 -1388 -2678)" stroke="#E36F1E" stroke-width="2"/>
<line y1="-1" x2="4330.32" y2="-1" transform="matrix(0.707107 0.707107 0.707107 -0.707107 -1388 -3014)" stroke="#E36F1E" stroke-width="2"/>
<line y1="-1" x2="4330.32" y2="-1" transform="matrix(0.707107 0.707107 0.707107 -0.707107 -1388 -2930)" stroke="#E36F1E" stroke-width="2"/>
<line y1="-1" x2="4330.32" y2="-1" transform="matrix(0.707107 0.707107 0.707107 -0.707107 -1388 -2618)" stroke="#E36F1E" stroke-width="2"/>
<line y1="-1" x2="4330.32" y2="-1" transform="matrix(0.707107 0.707107 0.707107 -0.707107 -1388 -2702)" stroke="#E36F1E" stroke-width="2"/>
<line y1="-1" x2="4330.32" y2="-1" transform="matrix(0.707107 0.707107 0.707107 -0.707107 -1388 -2870)" stroke="#E36F1E" stroke-width="2"/>
<line y1="-1" x2="4330.32" y2="-1" transform="matrix(0.707107 0.707107 0.707107 -0.707107 -1388 -2774)" stroke="#E36F1E" stroke-width="2"/>
<line y1="-1" x2="4330.32" y2="-1" transform="matrix(0.707107 0.707107 0.707107 -0.707107 -1388 -2978)" stroke="#E36F1E" stroke-width="2"/>
<line y1="-1" x2="4330.32" y2="-1" transform="matrix(0.707107 0.707107 0.707107 -0.707107 -1388 -2738)" stroke="#E36F1E" stroke-width="2"/>
<line y1="-1" x2="4330.32" y2="-1" transform="matrix(0.707107 0.707107 0.707107 -0.707107 -1388 -2726)" stroke="#E36F1E" stroke-width="2"/>
<line y1="-1" x2="4330.32" y2="-1" transform="matrix(0.707107 0.707107 0.707107 -0.707107 -1388 -2690)" stroke="#E36F1E" stroke-width="2"/>
<line y1="-1" x2="4330.32" y2="-1" transform="matrix(0.707107 0.707107 0.707107 -0.707107 -1388 -3026)" stroke="#E36F1E" stroke-width="2"/>
<line y1="-1" x2="4330.32" y2="-1" transform="matrix(0.707107 0.707107 0.707107 -0.707107 -1388 -2798)" stroke="#E36F1E" stroke-width="2"/>
<line y1="-1" x2="4330.32" y2="-1" transform="matrix(0.707107 0.707107 0.707107 -0.707107 -1388 -2882)" stroke="#E36F1E" stroke-width="2"/>
<line y1="-1" x2="4330.32" y2="-1" transform="matrix(0.707107 0.707107 0.707107 -0.707107 -1388 -2894)" stroke="#E36F1E" stroke-width="2"/>
<line y1="-1" x2="4330.32" y2="-1" transform="matrix(0.707107 0.707107 0.707107 -0.707107 -1388 -2846)" stroke="#E36F1E" stroke-width="2"/>
<line y1="-1" x2="4330.32" y2="-1" transform="matrix(0.707107 0.707107 0.707107 -0.707107 -1388 -2822)" stroke="#E36F1E" stroke-width="2"/>
<line y1="-1" x2="4330.32" y2="-1" transform="matrix(0.707107 0.707107 0.707107 -0.707107 -1388 -2918)" stroke="#E36F1E" stroke-width="2"/>
<line y1="-1" x2="4330.32" y2="-1" transform="matrix(0.707107 0.707107 0.707107 -0.707107 -1388 -2714)" stroke="#E36F1E" stroke-width="2"/>
<line y1="-1" x2="4330.32" y2="-1" transform="matrix(0.707107 0.707107 0.707107 -0.707107 -1388 -2858)" stroke="#E36F1E" stroke-width="2"/>
<line y1="-1" x2="4330.32" y2="-1" transform="matrix(0.707107 0.707107 0.707107 -0.707107 -1388 -2990)" stroke="#E36F1E" stroke-width="2"/>
<line y1="-1" x2="4330.32" y2="-1" transform="matrix(0.707107 0.707107 0.707107 -0.707107 -1388 -2810)" stroke="#E36F1E" stroke-width="2"/>
<line y1="-1" x2="4330.32" y2="-1" transform="matrix(0.707107 0.707107 0.707107 -0.707107 -1388 -2630)" stroke="#E36F1E" stroke-width="2"/>
<line y1="-1" x2="4330.32" y2="-1" transform="matrix(0.707107 0.707107 0.707107 -0.707107 -1388 -2642)" stroke="#E36F1E" stroke-width="2"/>
<line y1="-1" x2="4330.32" y2="-1" transform="matrix(0.707107 0.707107 0.707107 -0.707107 -1388 -2762)" stroke="#E36F1E" stroke-width="2"/>
<line y1="-1" x2="4330.32" y2="-1" transform="matrix(0.707107 0.707107 0.707107 -0.707107 -1388 -2402)" stroke="#E36F1E" stroke-width="2"/>
<line y1="-1" x2="4330.32" y2="-1" transform="matrix(0.707107 0.707107 0.707107 -0.707107 -1388 -2102)" stroke="#E36F1E" stroke-width="2"/>
<line y1="-1" x2="4330.32" y2="-1" transform="matrix(0.707107 0.707107 0.707107 -0.707107 -1388 -2090)" stroke="#E36F1E" stroke-width="2"/>
<line y1="-1" x2="4330.32" y2="-1" transform="matrix(0.707107 0.707107 0.707107 -0.707107 -1388 -2606)" stroke="#E36F1E" stroke-width="2"/>
<line y1="-1" x2="4330.32" y2="-1" transform="matrix(0.707107 0.707107 0.707107 -0.707107 -1388 -2342)" stroke="#E36F1E" stroke-width="2"/>
<line y1="-1" x2="4330.32" y2="-1" transform="matrix(0.707107 0.707107 0.707107 -0.707107 -1388 -2534)" stroke="#E36F1E" stroke-width="2"/>
<line y1="-1" x2="4330.32" y2="-1" transform="matrix(0.707107 0.707107 0.707107 -0.707107 -1388 -2390)" stroke="#E36F1E" stroke-width="2"/>
<line y1="-1" x2="4330.32" y2="-1" transform="matrix(0.707107 0.707107 0.707107 -0.707107 -1388 -2378)" stroke="#E36F1E" stroke-width="2"/>
<line y1="-1" x2="4330.32" y2="-1" transform="matrix(0.707107 0.707107 0.707107 -0.707107 -1388 -2186)" stroke="#E36F1E" stroke-width="2"/>
<line y1="-1" x2="4330.32" y2="-1" transform="matrix(0.707107 0.707107 0.707107 -0.707107 -1388 -2438)" stroke="#E36F1E" stroke-width="2"/>
<line y1="-1" x2="4330.32" y2="-1" transform="matrix(0.707107 0.707107 0.707107 -0.707107 -1388 -2570)" stroke="#E36F1E" stroke-width="2"/>
<line y1="-1" x2="4330.32" y2="-1" transform="matrix(0.707107 0.707107 0.707107 -0.707107 -1388 -2486)" stroke="#E36F1E" stroke-width="2"/>
<line y1="-1" x2="4330.32" y2="-1" transform="matrix(0.707107 0.707107 0.707107 -0.707107 -1388 -2270)" stroke="#E36F1E" stroke-width="2"/>
<line y1="-1" x2="4330.32" y2="-1" transform="matrix(0.707107 0.707107 0.707107 -0.707107 -1388 -2522)" stroke="#E36F1E" stroke-width="2"/>
<line y1="-1" x2="4330.32" y2="-1" transform="matrix(0.707107 0.707107 0.707107 -0.707107 -1388 -2222)" stroke="#E36F1E" stroke-width="2"/>
<line y1="-1" x2="4330.32" y2="-1" transform="matrix(0.707107 0.707107 0.707107 -0.707107 -1388 -2114)" stroke="#E36F1E" stroke-width="2"/>
<line y1="-1" x2="4330.32" y2="-1" transform="matrix(0.707107 0.707107 0.707107 -0.707107 -1388 -2546)" stroke="#E36F1E" stroke-width="2"/>
<line y1="-1" x2="4330.32" y2="-1" transform="matrix(0.707107 0.707107 0.707107 -0.707107 -1388 -2450)" stroke="#E36F1E" stroke-width="2"/>
<line y1="-1" x2="4330.32" y2="-1" transform="matrix(0.707107 0.707107 0.707107 -0.707107 -1388 -2594)" stroke="#E36F1E" stroke-width="2"/>
<line y1="-1" x2="4330.32" y2="-1" transform="matrix(0.707107 0.707107 0.707107 -0.707107 -1388 -2366)" stroke="#E36F1E" stroke-width="2"/>
<line y1="-1" x2="4330.32" y2="-1" transform="matrix(0.707107 0.707107 0.707107 -0.707107 -1388 -2054)" stroke="#E36F1E" stroke-width="2"/>
<line y1="-1" x2="4330.32" y2="-1" transform="matrix(0.707107 0.707107 0.707107 -0.707107 -1388 -2498)" stroke="#E36F1E" stroke-width="2"/>
<line y1="-1" x2="4330.32" y2="-1" transform="matrix(0.707107 0.707107 0.707107 -0.707107 -1388 -2510)" stroke="#E36F1E" stroke-width="2"/>
<line y1="-1" x2="4330.32" y2="-1" transform="matrix(0.707107 0.707107 0.707107 -0.707107 -1388 -2138)" stroke="#E36F1E" stroke-width="2"/>
<line y1="-1" x2="4330.32" y2="-1" transform="matrix(0.707107 0.707107 0.707107 -0.707107 -1388 -2306)" stroke="#E36F1E" stroke-width="2"/>
<line y1="-1" x2="4330.32" y2="-1" transform="matrix(0.707107 0.707107 0.707107 -0.707107 -1388 -2558)" stroke="#E36F1E" stroke-width="2"/>
<line y1="-1" x2="4330.32" y2="-1" transform="matrix(0.707107 0.707107 0.707107 -0.707107 -1388 -2210)" stroke="#E36F1E" stroke-width="2"/>
<line y1="-1" x2="4330.32" y2="-1" transform="matrix(0.707107 0.707107 0.707107 -0.707107 -1388 -2414)" stroke="#E36F1E" stroke-width="2"/>
<line y1="-1" x2="4330.32" y2="-1" transform="matrix(0.707107 0.707107 0.707107 -0.707107 -1388 -2582)" stroke="#E36F1E" stroke-width="2"/>
<line y1="-1" x2="4330.32" y2="-1" transform="matrix(0.707107 0.707107 0.707107 -0.707107 -1388 -2174)" stroke="#E36F1E" stroke-width="2"/>
<line y1="-1" x2="4330.32" y2="-1" transform="matrix(0.707107 0.707107 0.707107 -0.707107 -1388 -2162)" stroke="#E36F1E" stroke-width="2"/>
<line y1="-1" x2="4330.32" y2="-1" transform="matrix(0.707107 0.707107 0.707107 -0.707107 -1388 -2126)" stroke="#E36F1E" stroke-width="2"/>
<line y1="-1" x2="4330.32" y2="-1" transform="matrix(0.707107 0.707107 0.707107 -0.707107 -1388 -2462)" stroke="#E36F1E" stroke-width="2"/>
<line y1="-1" x2="4330.32" y2="-1" transform="matrix(0.707107 0.707107 0.707107 -0.707107 -1388 -2234)" stroke="#E36F1E" stroke-width="2"/>
<line y1="-1" x2="4330.32" y2="-1" transform="matrix(0.707107 0.707107 0.707107 -0.707107 -1388 -2318)" stroke="#E36F1E" stroke-width="2"/>
<line y1="-1" x2="4330.32" y2="-1" transform="matrix(0.707107 0.707107 0.707107 -0.707107 -1388 -2330)" stroke="#E36F1E" stroke-width="2"/>
<line y1="-1" x2="4330.32" y2="-1" transform="matrix(0.707107 0.707107 0.707107 -0.707107 -1388 -2282)" stroke="#E36F1E" stroke-width="2"/>
<line y1="-1" x2="4330.32" y2="-1" transform="matrix(0.707107 0.707107 0.707107 -0.707107 -1388 -2474)" stroke="#E36F1E" stroke-width="2"/>
<line y1="-1" x2="4330.32" y2="-1" transform="matrix(0.707107 0.707107 0.707107 -0.707107 -1388 -2258)" stroke="#E36F1E" stroke-width="2"/>
<line y1="-1" x2="4330.32" y2="-1" transform="matrix(0.707107 0.707107 0.707107 -0.707107 -1388 -2354)" stroke="#E36F1E" stroke-width="2"/>
<line y1="-1" x2="4330.32" y2="-1" transform="matrix(0.707107 0.707107 0.707107 -0.707107 -1388 -2150)" stroke="#E36F1E" stroke-width="2"/>
<line y1="-1" x2="4330.32" y2="-1" transform="matrix(0.707107 0.707107 0.707107 -0.707107 -1388 -2294)" stroke="#E36F1E" stroke-width="2"/>
<line y1="-1" x2="4330.32" y2="-1" transform="matrix(0.707107 0.707107 0.707107 -0.707107 -1388 -2426)" stroke="#E36F1E" stroke-width="2"/>
<line y1="-1" x2="4330.32" y2="-1" transform="matrix(0.707107 0.707107 0.707107 -0.707107 -1388 -2246)" stroke="#E36F1E" stroke-width="2"/>
<line y1="-1" x2="4330.32" y2="-1" transform="matrix(0.707107 0.707107 0.707107 -0.707107 -1388 -2066)" stroke="#E36F1E" stroke-width="2"/>
<line y1="-1" x2="4330.32" y2="-1" transform="matrix(0.707107 0.707107 0.707107 -0.707107 -1388 -2078)" stroke="#E36F1E" stroke-width="2"/>
<line y1="-1" x2="4330.32" y2="-1" transform="matrix(0.707107 0.707107 0.707107 -0.707107 -1388 -2198)" stroke="#E36F1E" stroke-width="2"/>
<line y1="-1" x2="4330.32" y2="-1" transform="matrix(0.707107 0.707107 0.707107 -0.707107 -1388 -1838)" stroke="#E36F1E" stroke-width="2"/>
<line y1="-1" x2="4330.32" y2="-1" transform="matrix(0.707107 0.707107 0.707107 -0.707107 -1388 -1538)" stroke="#E36F1E" stroke-width="2"/>
<line y1="-1" x2="4330.32" y2="-1" transform="matrix(0.707107 0.707107 0.707107 -0.707107 -1388 -1526)" stroke="#E36F1E" stroke-width="2"/>
<line y1="-1" x2="4330.32" y2="-1" transform="matrix(0.707107 0.707107 0.707107 -0.707107 -1388 -2042)" stroke="#E36F1E" stroke-width="2"/>
<line y1="-1" x2="4330.32" y2="-1" transform="matrix(0.707107 0.707107 0.707107 -0.707107 -1388 -1778)" stroke="#E36F1E" stroke-width="2"/>
<line y1="-1" x2="4330.32" y2="-1" transform="matrix(0.707107 0.707107 0.707107 -0.707107 -1388 -1970)" stroke="#E36F1E" stroke-width="2"/>
<line y1="-1" x2="4330.32" y2="-1" transform="matrix(0.707107 0.707107 0.707107 -0.707107 -1388 -1826)" stroke="#E36F1E" stroke-width="2"/>
<line y1="-1" x2="4330.32" y2="-1" transform="matrix(0.707107 0.707107 0.707107 -0.707107 -1388 -1814)" stroke="#E36F1E" stroke-width="2"/>
<line y1="-1" x2="4330.32" y2="-1" transform="matrix(0.707107 0.707107 0.707107 -0.707107 -1388 -1622)" stroke="#E36F1E" stroke-width="2"/>
<line y1="-1" x2="4330.32" y2="-1" transform="matrix(0.707107 0.707107 0.707107 -0.707107 -1388 -1874)" stroke="#E36F1E" stroke-width="2"/>
<line y1="-1" x2="4330.32" y2="-1" transform="matrix(0.707107 0.707107 0.707107 -0.707107 -1388 -2006)" stroke="#E36F1E" stroke-width="2"/>
<line y1="-1" x2="4330.32" y2="-1" transform="matrix(0.707107 0.707107 0.707107 -0.707107 -1388 -1922)" stroke="#E36F1E" stroke-width="2"/>
<line y1="-1" x2="4330.32" y2="-1" transform="matrix(0.707107 0.707107 0.707107 -0.707107 -1388 -1706)" stroke="#E36F1E" stroke-width="2"/>
<line y1="-1" x2="4330.32" y2="-1" transform="matrix(0.707107 0.707107 0.707107 -0.707107 -1388 -1958)" stroke="#E36F1E" stroke-width="2"/>
<line y1="-1" x2="4330.32" y2="-1" transform="matrix(0.707107 0.707107 0.707107 -0.707107 -1388 -1658)" stroke="#E36F1E" stroke-width="2"/>
<line y1="-1" x2="4330.32" y2="-1" transform="matrix(0.707107 0.707107 0.707107 -0.707107 -1388 -1550)" stroke="#E36F1E" stroke-width="2"/>
<line y1="-1" x2="4330.32" y2="-1" transform="matrix(0.707107 0.707107 0.707107 -0.707107 -1388 -1982)" stroke="#E36F1E" stroke-width="2"/>
<line y1="-1" x2="4330.32" y2="-1" transform="matrix(0.707107 0.707107 0.707107 -0.707107 -1388 -1886)" stroke="#E36F1E" stroke-width="2"/>
<line y1="-1" x2="4330.32" y2="-1" transform="matrix(0.707107 0.707107 0.707107 -0.707107 -1388 -2030)" stroke="#E36F1E" stroke-width="2"/>
<line y1="-1" x2="4330.32" y2="-1" transform="matrix(0.707107 0.707107 0.707107 -0.707107 -1388 -1802)" stroke="#E36F1E" stroke-width="2"/>
<line y1="-1" x2="4330.32" y2="-1" transform="matrix(0.707107 0.707107 0.707107 -0.707107 -1388 -1490)" stroke="#E36F1E" stroke-width="2"/>
<line y1="-1" x2="4330.32" y2="-1" transform="matrix(0.707107 0.707107 0.707107 -0.707107 -1388 -1934)" stroke="#E36F1E" stroke-width="2"/>
<line y1="-1" x2="4330.32" y2="-1" transform="matrix(0.707107 0.707107 0.707107 -0.707107 -1388 -1946)" stroke="#E36F1E" stroke-width="2"/>
<line y1="-1" x2="4330.32" y2="-1" transform="matrix(0.707107 0.707107 0.707107 -0.707107 -1388 -1574)" stroke="#E36F1E" stroke-width="2"/>
<line y1="-1" x2="4330.32" y2="-1" transform="matrix(0.707107 0.707107 0.707107 -0.707107 -1388 -1742)" stroke="#E36F1E" stroke-width="2"/>
<line y1="-1" x2="4330.32" y2="-1" transform="matrix(0.707107 0.707107 0.707107 -0.707107 -1388 -1994)" stroke="#E36F1E" stroke-width="2"/>
<line y1="-1" x2="4330.32" y2="-1" transform="matrix(0.707107 0.707107 0.707107 -0.707107 -1388 -1646)" stroke="#E36F1E" stroke-width="2"/>
<line y1="-1" x2="4330.32" y2="-1" transform="matrix(0.707107 0.707107 0.707107 -0.707107 -1388 -1850)" stroke="#E36F1E" stroke-width="2"/>
<line y1="-1" x2="4330.32" y2="-1" transform="matrix(0.707107 0.707107 0.707107 -0.707107 -1388 -2018)" stroke="#E36F1E" stroke-width="2"/>
<line y1="-1" x2="4330.32" y2="-1" transform="matrix(0.707107 0.707107 0.707107 -0.707107 -1388 -1610)" stroke="#E36F1E" stroke-width="2"/>
<line y1="-1" x2="4330.32" y2="-1" transform="matrix(0.707107 0.707107 0.707107 -0.707107 -1388 -1598)" stroke="#E36F1E" stroke-width="2"/>
<line y1="-1" x2="4330.32" y2="-1" transform="matrix(0.707107 0.707107 0.707107 -0.707107 -1388 -1562)" stroke="#E36F1E" stroke-width="2"/>
<line y1="-1" x2="4330.32" y2="-1" transform="matrix(0.707107 0.707107 0.707107 -0.707107 -1388 -1898)" stroke="#E36F1E" stroke-width="2"/>
<line y1="-1" x2="4330.32" y2="-1" transform="matrix(0.707107 0.707107 0.707107 -0.707107 -1388 -1670)" stroke="#E36F1E" stroke-width="2"/>
<line y1="-1" x2="4330.32" y2="-1" transform="matrix(0.707107 0.707107 0.707107 -0.707107 -1388 -1754)" stroke="#E36F1E" stroke-width="2"/>
<line y1="-1" x2="4330.32" y2="-1" transform="matrix(0.707107 0.707107 0.707107 -0.707107 -1388 -1766)" stroke="#E36F1E" stroke-width="2"/>
<line y1="-1" x2="4330.32" y2="-1" transform="matrix(0.707107 0.707107 0.707107 -0.707107 -1388 -1718)" stroke="#E36F1E" stroke-width="2"/>
<line y1="-1" x2="4330.32" y2="-1" transform="matrix(0.707107 0.707107 0.707107 -0.707107 -1388 -1910)" stroke="#E36F1E" stroke-width="2"/>
<line y1="-1" x2="4330.32" y2="-1" transform="matrix(0.707107 0.707107 0.707107 -0.707107 -1388 -1694)" stroke="#E36F1E" stroke-width="2"/>
<line y1="-1" x2="4330.32" y2="-1" transform="matrix(0.707107 0.707107 0.707107 -0.707107 -1388 -1790)" stroke="#E36F1E" stroke-width="2"/>
<line y1="-1" x2="4330.32" y2="-1" transform="matrix(0.707107 0.707107 0.707107 -0.707107 -1388 -1586)" stroke="#E36F1E" stroke-width="2"/>
<line y1="-1" x2="4330.32" y2="-1" transform="matrix(0.707107 0.707107 0.707107 -0.707107 -1388 -1730)" stroke="#E36F1E" stroke-width="2"/>
<line y1="-1" x2="4330.32" y2="-1" transform="matrix(0.707107 0.707107 0.707107 -0.707107 -1388 -1862)" stroke="#E36F1E" stroke-width="2"/>
<line y1="-1" x2="4330.32" y2="-1" transform="matrix(0.707107 0.707107 0.707107 -0.707107 -1388 -1682)" stroke="#E36F1E" stroke-width="2"/>
<line y1="-1" x2="4330.32" y2="-1" transform="matrix(0.707107 0.707107 0.707107 -0.707107 -1388 -1502)" stroke="#E36F1E" stroke-width="2"/>
<line y1="-1" x2="4330.32" y2="-1" transform="matrix(0.707107 0.707107 0.707107 -0.707107 -1388 -1514)" stroke="#E36F1E" stroke-width="2"/>
<line y1="-1" x2="4330.32" y2="-1" transform="matrix(0.707107 0.707107 0.707107 -0.707107 -1388 -1634)" stroke="#E36F1E" stroke-width="2"/>
<line y1="-1" x2="4330.32" y2="-1" transform="matrix(0.707107 0.707107 0.707107 -0.707107 -1388 -1274)" stroke="#E36F1E" stroke-width="2"/>
<line y1="-1" x2="4330.32" y2="-1" transform="matrix(0.707107 0.707107 0.707107 -0.707107 -1388 -974)" stroke="#E36F1E" stroke-width="2"/>
<line y1="-1" x2="4330.32" y2="-1" transform="matrix(0.707107 0.707107 0.707107 -0.707107 -1388 -962)" stroke="#E36F1E" stroke-width="2"/>
<line y1="-1" x2="4330.32" y2="-1" transform="matrix(0.707107 0.707107 0.707107 -0.707107 -1388 -1478)" stroke="#E36F1E" stroke-width="2"/>
<line y1="-1" x2="4330.32" y2="-1" transform="matrix(0.707107 0.707107 0.707107 -0.707107 -1388 -1214)" stroke="#E36F1E" stroke-width="2"/>
<line y1="-1" x2="4330.32" y2="-1" transform="matrix(0.707107 0.707107 0.707107 -0.707107 -1388 -1406)" stroke="#E36F1E" stroke-width="2"/>
<line y1="-1" x2="4330.32" y2="-1" transform="matrix(0.707107 0.707107 0.707107 -0.707107 -1388 -1262)" stroke="#E36F1E" stroke-width="2"/>
<line y1="-1" x2="4330.32" y2="-1" transform="matrix(0.707107 0.707107 0.707107 -0.707107 -1388 -1250)" stroke="#E36F1E" stroke-width="2"/>
<line y1="-1" x2="4330.32" y2="-1" transform="matrix(0.707107 0.707107 0.707107 -0.707107 -1388 -1058)" stroke="#E36F1E" stroke-width="2"/>
<line y1="-1" x2="4330.32" y2="-1" transform="matrix(0.707107 0.707107 0.707107 -0.707107 -1388 -1310)" stroke="#E36F1E" stroke-width="2"/>
<line y1="-1" x2="4330.32" y2="-1" transform="matrix(0.707107 0.707107 0.707107 -0.707107 -1388 -1442)" stroke="#E36F1E" stroke-width="2"/>
<line y1="-1" x2="4330.32" y2="-1" transform="matrix(0.707107 0.707107 0.707107 -0.707107 -1388 -1358)" stroke="#E36F1E" stroke-width="2"/>
<line y1="-1" x2="4330.32" y2="-1" transform="matrix(0.707107 0.707107 0.707107 -0.707107 -1388 -1142)" stroke="#E36F1E" stroke-width="2"/>
<line y1="-1" x2="4330.32" y2="-1" transform="matrix(0.707107 0.707107 0.707107 -0.707107 -1388 -1394)" stroke="#E36F1E" stroke-width="2"/>
<line y1="-1" x2="4330.32" y2="-1" transform="matrix(0.707107 0.707107 0.707107 -0.707107 -1388 -1094)" stroke="#E36F1E" stroke-width="2"/>
<line y1="-1" x2="4330.32" y2="-1" transform="matrix(0.707107 0.707107 0.707107 -0.707107 -1388 -986)" stroke="#E36F1E" stroke-width="2"/>
<line y1="-1" x2="4330.32" y2="-1" transform="matrix(0.707107 0.707107 0.707107 -0.707107 -1388 -1418)" stroke="#E36F1E" stroke-width="2"/>
<line y1="-1" x2="4330.32" y2="-1" transform="matrix(0.707107 0.707107 0.707107 -0.707107 -1388 -1322)" stroke="#E36F1E" stroke-width="2"/>
<line y1="-1" x2="4330.32" y2="-1" transform="matrix(0.707107 0.707107 0.707107 -0.707107 -1388 -1466)" stroke="#E36F1E" stroke-width="2"/>
<line y1="-1" x2="4330.32" y2="-1" transform="matrix(0.707107 0.707107 0.707107 -0.707107 -1388 -1238)" stroke="#E36F1E" stroke-width="2"/>
<line y1="-1" x2="4330.32" y2="-1" transform="matrix(0.707107 0.707107 0.707107 -0.707107 -1388 -926)" stroke="#E36F1E" stroke-width="2"/>
<line y1="-1" x2="4330.32" y2="-1" transform="matrix(0.707107 0.707107 0.707107 -0.707107 -1388 -1370)" stroke="#E36F1E" stroke-width="2"/>
<line y1="-1" x2="4330.32" y2="-1" transform="matrix(0.707107 0.707107 0.707107 -0.707107 -1388 -1382)" stroke="#E36F1E" stroke-width="2"/>
<line y1="-1" x2="4330.32" y2="-1" transform="matrix(0.707107 0.707107 0.707107 -0.707107 -1388 -1010)" stroke="#E36F1E" stroke-width="2"/>
<line y1="-1" x2="4330.32" y2="-1" transform="matrix(0.707107 0.707107 0.707107 -0.707107 -1388 -1178)" stroke="#E36F1E" stroke-width="2"/>
<line y1="-1" x2="4330.32" y2="-1" transform="matrix(0.707107 0.707107 0.707107 -0.707107 -1388 -1430)" stroke="#E36F1E" stroke-width="2"/>
<line y1="-1" x2="4330.32" y2="-1" transform="matrix(0.707107 0.707107 0.707107 -0.707107 -1388 -1082)" stroke="#E36F1E" stroke-width="2"/>
<line y1="-1" x2="4330.32" y2="-1" transform="matrix(0.707107 0.707107 0.707107 -0.707107 -1388 -1286)" stroke="#E36F1E" stroke-width="2"/>
<line y1="-1" x2="4330.32" y2="-1" transform="matrix(0.707107 0.707107 0.707107 -0.707107 -1388 -1454)" stroke="#E36F1E" stroke-width="2"/>
<line y1="-1" x2="4330.32" y2="-1" transform="matrix(0.707107 0.707107 0.707107 -0.707107 -1388 -1046)" stroke="#E36F1E" stroke-width="2"/>
<line y1="-1" x2="4330.32" y2="-1" transform="matrix(0.707107 0.707107 0.707107 -0.707107 -1388 -1034)" stroke="#E36F1E" stroke-width="2"/>
<line y1="-1" x2="4330.32" y2="-1" transform="matrix(0.707107 0.707107 0.707107 -0.707107 -1388 -998)" stroke="#E36F1E" stroke-width="2"/>
<line y1="-1" x2="4330.32" y2="-1" transform="matrix(0.707107 0.707107 0.707107 -0.707107 -1388 -1334)" stroke="#E36F1E" stroke-width="2"/>
<line y1="-1" x2="4330.32" y2="-1" transform="matrix(0.707107 0.707107 0.707107 -0.707107 -1388 -1106)" stroke="#E36F1E" stroke-width="2"/>
<line y1="-1" x2="4330.32" y2="-1" transform="matrix(0.707107 0.707107 0.707107 -0.707107 -1388 -1190)" stroke="#E36F1E" stroke-width="2"/>
<line y1="-1" x2="4330.32" y2="-1" transform="matrix(0.707107 0.707107 0.707107 -0.707107 -1388 -1202)" stroke="#E36F1E" stroke-width="2"/>
<line y1="-1" x2="4330.32" y2="-1" transform="matrix(0.707107 0.707107 0.707107 -0.707107 -1388 -1154)" stroke="#E36F1E" stroke-width="2"/>
<line y1="-1" x2="4330.32" y2="-1" transform="matrix(0.707107 0.707107 0.707107 -0.707107 -1388 -1346)" stroke="#E36F1E" stroke-width="2"/>
<line y1="-1" x2="4330.32" y2="-1" transform="matrix(0.707107 0.707107 0.707107 -0.707107 -1388 -1130)" stroke="#E36F1E" stroke-width="2"/>
<line y1="-1" x2="4330.32" y2="-1" transform="matrix(0.707107 0.707107 0.707107 -0.707107 -1388 -1226)" stroke="#E36F1E" stroke-width="2"/>
<line y1="-1" x2="4330.32" y2="-1" transform="matrix(0.707107 0.707107 0.707107 -0.707107 -1388 -1022)" stroke="#E36F1E" stroke-width="2"/>
<line y1="-1" x2="4330.32" y2="-1" transform="matrix(0.707107 0.707107 0.707107 -0.707107 -1388 -1166)" stroke="#E36F1E" stroke-width="2"/>
<line y1="-1" x2="4330.32" y2="-1" transform="matrix(0.707107 0.707107 0.707107 -0.707107 -1388 -1298)" stroke="#E36F1E" stroke-width="2"/>
<line y1="-1" x2="4330.32" y2="-1" transform="matrix(0.707107 0.707107 0.707107 -0.707107 -1388 -1118)" stroke="#E36F1E" stroke-width="2"/>
<line y1="-1" x2="4330.32" y2="-1" transform="matrix(0.707107 0.707107 0.707107 -0.707107 -1388 -938)" stroke="#E36F1E" stroke-width="2"/>
<line y1="-1" x2="4330.32" y2="-1" transform="matrix(0.707107 0.707107 0.707107 -0.707107 -1388 -950)" stroke="#E36F1E" stroke-width="2"/>
<line y1="-1" x2="4330.32" y2="-1" transform="matrix(0.707107 0.707107 0.707107 -0.707107 -1388 -1070)" stroke="#E36F1E" stroke-width="2"/>
<line y1="-1" x2="4330.32" y2="-1" transform="matrix(0.707107 0.707107 0.707107 -0.707107 -1388 -710)" stroke="#E36F1E" stroke-width="2"/>
<line y1="-1" x2="4330.32" y2="-1" transform="matrix(0.707107 0.707107 0.707107 -0.707107 -1388 -410)" stroke="#E36F1E" stroke-width="2"/>
<line y1="-1" x2="4330.32" y2="-1" transform="matrix(0.707107 0.707107 0.707107 -0.707107 -1388 -398)" stroke="#E36F1E" stroke-width="2"/>
<line y1="-1" x2="4330.32" y2="-1" transform="matrix(0.707107 0.707107 0.707107 -0.707107 -1388 -914)" stroke="#E36F1E" stroke-width="2"/>
<line y1="-1" x2="4330.32" y2="-1" transform="matrix(0.707107 0.707107 0.707107 -0.707107 -1388 -650)" stroke="#E36F1E" stroke-width="2"/>
<line y1="-1" x2="4330.32" y2="-1" transform="matrix(0.707107 0.707107 0.707107 -0.707107 -1388 -842)" stroke="#E36F1E" stroke-width="2"/>
<line y1="-1" x2="4330.32" y2="-1" transform="matrix(0.707107 0.707107 0.707107 -0.707107 -1388 -698)" stroke="#E36F1E" stroke-width="2"/>
<line y1="-1" x2="4330.32" y2="-1" transform="matrix(0.707107 0.707107 0.707107 -0.707107 -1388 -686)" stroke="#E36F1E" stroke-width="2"/>
<line y1="-1" x2="4330.32" y2="-1" transform="matrix(0.707107 0.707107 0.707107 -0.707107 -1388 -494)" stroke="#E36F1E" stroke-width="2"/>
<line y1="-1" x2="4330.32" y2="-1" transform="matrix(0.707107 0.707107 0.707107 -0.707107 -1388 -746)" stroke="#E36F1E" stroke-width="2"/>
<line y1="-1" x2="4330.32" y2="-1" transform="matrix(0.707107 0.707107 0.707107 -0.707107 -1388 -878)" stroke="#E36F1E" stroke-width="2"/>
<line y1="-1" x2="4330.32" y2="-1" transform="matrix(0.707107 0.707107 0.707107 -0.707107 -1388 -794)" stroke="#E36F1E" stroke-width="2"/>
<line y1="-1" x2="4330.32" y2="-1" transform="matrix(0.707107 0.707107 0.707107 -0.707107 -1388 -578)" stroke="#E36F1E" stroke-width="2"/>
<line y1="-1" x2="4330.32" y2="-1" transform="matrix(0.707107 0.707107 0.707107 -0.707107 -1388 -830)" stroke="#E36F1E" stroke-width="2"/>
<line y1="-1" x2="4330.32" y2="-1" transform="matrix(0.707107 0.707107 0.707107 -0.707107 -1388 -530)" stroke="#E36F1E" stroke-width="2"/>
<line y1="-1" x2="4330.32" y2="-1" transform="matrix(0.707107 0.707107 0.707107 -0.707107 -1388 -422)" stroke="#E36F1E" stroke-width="2"/>
<line y1="-1" x2="4330.32" y2="-1" transform="matrix(0.707107 0.707107 0.707107 -0.707107 -1388 -854)" stroke="#E36F1E" stroke-width="2"/>
<line y1="-1" x2="4330.32" y2="-1" transform="matrix(0.707107 0.707107 0.707107 -0.707107 -1388 -758)" stroke="#E36F1E" stroke-width="2"/>
<line y1="-1" x2="4330.32" y2="-1" transform="matrix(0.707107 0.707107 0.707107 -0.707107 -1388 -902)" stroke="#E36F1E" stroke-width="2"/>
<line y1="-1" x2="4330.32" y2="-1" transform="matrix(0.707107 0.707107 0.707107 -0.707107 -1388 -674)" stroke="#E36F1E" stroke-width="2"/>
<line y1="-1" x2="4330.32" y2="-1" transform="matrix(0.707107 0.707107 0.707107 -0.707107 -1388 -362)" stroke="#E36F1E" stroke-width="2"/>
<line y1="-1" x2="4330.32" y2="-1" transform="matrix(0.707107 0.707107 0.707107 -0.707107 -1388 -806)" stroke="#E36F1E" stroke-width="2"/>
<line y1="-1" x2="4330.32" y2="-1" transform="matrix(0.707107 0.707107 0.707107 -0.707107 -1388 -818)" stroke="#E36F1E" stroke-width="2"/>
<line y1="-1" x2="4330.32" y2="-1" transform="matrix(0.707107 0.707107 0.707107 -0.707107 -1388 -446)" stroke="#E36F1E" stroke-width="2"/>
<line y1="-1" x2="4330.32" y2="-1" transform="matrix(0.707107 0.707107 0.707107 -0.707107 -1388 -614)" stroke="#E36F1E" stroke-width="2"/>
<line y1="-1" x2="4330.32" y2="-1" transform="matrix(0.707107 0.707107 0.707107 -0.707107 -1388 -866)" stroke="#E36F1E" stroke-width="2"/>
<line y1="-1" x2="4330.32" y2="-1" transform="matrix(0.707107 0.707107 0.707107 -0.707107 -1388 -518)" stroke="#E36F1E" stroke-width="2"/>
<line y1="-1" x2="4330.32" y2="-1" transform="matrix(0.707107 0.707107 0.707107 -0.707107 -1388 -722)" stroke="#E36F1E" stroke-width="2"/>
<line y1="-1" x2="4330.32" y2="-1" transform="matrix(0.707107 0.707107 0.707107 -0.707107 -1388 -890)" stroke="#E36F1E" stroke-width="2"/>
<line y1="-1" x2="4330.32" y2="-1" transform="matrix(0.707107 0.707107 0.707107 -0.707107 -1388 -482)" stroke="#E36F1E" stroke-width="2"/>
<line y1="-1" x2="4330.32" y2="-1" transform="matrix(0.707107 0.707107 0.707107 -0.707107 -1388 -470)" stroke="#E36F1E" stroke-width="2"/>
<line y1="-1" x2="4330.32" y2="-1" transform="matrix(0.707107 0.707107 0.707107 -0.707107 -1388 -434)" stroke="#E36F1E" stroke-width="2"/>
<line y1="-1" x2="4330.32" y2="-1" transform="matrix(0.707107 0.707107 0.707107 -0.707107 -1388 -770)" stroke="#E36F1E" stroke-width="2"/>
<line y1="-1" x2="4330.32" y2="-1" transform="matrix(0.707107 0.707107 0.707107 -0.707107 -1388 -542)" stroke="#E36F1E" stroke-width="2"/>
<line y1="-1" x2="4330.32" y2="-1" transform="matrix(0.707107 0.707107 0.707107 -0.707107 -1388 -626)" stroke="#E36F1E" stroke-width="2"/>
<line y1="-1" x2="4330.32" y2="-1" transform="matrix(0.707107 0.707107 0.707107 -0.707107 -1388 -638)" stroke="#E36F1E" stroke-width="2"/>
<line y1="-1" x2="4330.32" y2="-1" transform="matrix(0.707107 0.707107 0.707107 -0.707107 -1388 -590)" stroke="#E36F1E" stroke-width="2"/>
<line y1="-1" x2="4330.32" y2="-1" transform="matrix(0.707107 0.707107 0.707107 -0.707107 -1388 -782)" stroke="#E36F1E" stroke-width="2"/>
<line y1="-1" x2="4330.32" y2="-1" transform="matrix(0.707107 0.707107 0.707107 -0.707107 -1388 -566)" stroke="#E36F1E" stroke-width="2"/>
<line y1="-1" x2="4330.32" y2="-1" transform="matrix(0.707107 0.707107 0.707107 -0.707107 -1388 -662)" stroke="#E36F1E" stroke-width="2"/>
<line y1="-1" x2="4330.32" y2="-1" transform="matrix(0.707107 0.707107 0.707107 -0.707107 -1388 -458)" stroke="#E36F1E" stroke-width="2"/>
<line y1="-1" x2="4330.32" y2="-1" transform="matrix(0.707107 0.707107 0.707107 -0.707107 -1388 -602)" stroke="#E36F1E" stroke-width="2"/>
<line y1="-1" x2="4330.32" y2="-1" transform="matrix(0.707107 0.707107 0.707107 -0.707107 -1388 -734)" stroke="#E36F1E" stroke-width="2"/>
<line y1="-1" x2="4330.32" y2="-1" transform="matrix(0.707107 0.707107 0.707107 -0.707107 -1388 -554)" stroke="#E36F1E" stroke-width="2"/>
<line y1="-1" x2="4330.32" y2="-1" transform="matrix(0.707107 0.707107 0.707107 -0.707107 -1388 -374)" stroke="#E36F1E" stroke-width="2"/>
<line y1="-1" x2="4330.32" y2="-1" transform="matrix(0.707107 0.707107 0.707107 -0.707107 -1388 -386)" stroke="#E36F1E" stroke-width="2"/>
<line y1="-1" x2="4330.32" y2="-1" transform="matrix(0.707107 0.707107 0.707107 -0.707107 -1388 -506)" stroke="#E36F1E" stroke-width="2"/>
<line y1="-1" x2="4330.32" y2="-1" transform="matrix(0.707107 0.707107 0.707107 -0.707107 -1388 -146)" stroke="#E36F1E" stroke-width="2"/>
<line y1="-1" x2="4330.32" y2="-1" transform="matrix(0.707107 0.707107 0.707107 -0.707107 -1388 154)" stroke="#E36F1E" stroke-width="2"/>
<line y1="-1" x2="4330.32" y2="-1" transform="matrix(0.707107 0.707107 0.707107 -0.707107 -1388 166)" stroke="#E36F1E" stroke-width="2"/>
<line y1="-1" x2="4330.32" y2="-1" transform="matrix(0.707107 0.707107 0.707107 -0.707107 -1388 -350)" stroke="#E36F1E" stroke-width="2"/>
<line y1="-1" x2="4330.32" y2="-1" transform="matrix(0.707107 0.707107 0.707107 -0.707107 -1388 -86)" stroke="#E36F1E" stroke-width="2"/>
<line y1="-1" x2="4330.32" y2="-1" transform="matrix(0.707107 0.707107 0.707107 -0.707107 -1388 -278)" stroke="#E36F1E" stroke-width="2"/>
<line y1="-1" x2="4330.32" y2="-1" transform="matrix(0.707107 0.707107 0.707107 -0.707107 -1388 -134)" stroke="#E36F1E" stroke-width="2"/>
<line y1="-1" x2="4330.32" y2="-1" transform="matrix(0.707107 0.707107 0.707107 -0.707107 -1388 -122)" stroke="#E36F1E" stroke-width="2"/>
<line y1="-1" x2="4330.32" y2="-1" transform="matrix(0.707107 0.707107 0.707107 -0.707107 -1388 70)" stroke="#E36F1E" stroke-width="2"/>
<line y1="-1" x2="4330.32" y2="-1" transform="matrix(0.707107 0.707107 0.707107 -0.707107 -1388 -182)" stroke="#E36F1E" stroke-width="2"/>
<line y1="-1" x2="4330.32" y2="-1" transform="matrix(0.707107 0.707107 0.707107 -0.707107 -1388 -314)" stroke="#E36F1E" stroke-width="2"/>
<line y1="-1" x2="4330.32" y2="-1" transform="matrix(0.707107 0.707107 0.707107 -0.707107 -1388 -230)" stroke="#E36F1E" stroke-width="2"/>
<line y1="-1" x2="4330.32" y2="-1" transform="matrix(0.707107 0.707107 0.707107 -0.707107 -1388 -14)" stroke="#E36F1E" stroke-width="2"/>
<line y1="-1" x2="4330.32" y2="-1" transform="matrix(0.707107 0.707107 0.707107 -0.707107 -1388 -266)" stroke="#E36F1E" stroke-width="2"/>
<line y1="-1" x2="4330.32" y2="-1" transform="matrix(0.707107 0.707107 0.707107 -0.707107 -1388 34)" stroke="#E36F1E" stroke-width="2"/>
<line y1="-1" x2="4330.32" y2="-1" transform="matrix(0.707107 0.707107 0.707107 -0.707107 -1388 142)" stroke="#E36F1E" stroke-width="2"/>
<line y1="-1" x2="4330.32" y2="-1" transform="matrix(0.707107 0.707107 0.707107 -0.707107 -1388 -290)" stroke="#E36F1E" stroke-width="2"/>
<line y1="-1" x2="4330.32" y2="-1" transform="matrix(0.707107 0.707107 0.707107 -0.707107 -1388 -194)" stroke="#E36F1E" stroke-width="2"/>
<line y1="-1" x2="4330.32" y2="-1" transform="matrix(0.707107 0.707107 0.707107 -0.707107 -1388 -338)" stroke="#E36F1E" stroke-width="2"/>
<line y1="-1" x2="4330.32" y2="-1" transform="matrix(0.707107 0.707107 0.707107 -0.707107 -1388 -110)" stroke="#E36F1E" stroke-width="2"/>
<line y1="-1" x2="4330.32" y2="-1" transform="matrix(0.707107 0.707107 0.707107 -0.707107 -1388 -242)" stroke="#E36F1E" stroke-width="2"/>
<line y1="-1" x2="4330.32" y2="-1" transform="matrix(0.707107 0.707107 0.707107 -0.707107 -1388 -254)" stroke="#E36F1E" stroke-width="2"/>
<line y1="-1" x2="4330.32" y2="-1" transform="matrix(0.707107 0.707107 0.707107 -0.707107 -1388 118)" stroke="#E36F1E" stroke-width="2"/>
<line y1="-1" x2="4330.32" y2="-1" transform="matrix(0.707107 0.707107 0.707107 -0.707107 -1388 -50)" stroke="#E36F1E" stroke-width="2"/>
<line y1="-1" x2="4330.32" y2="-1" transform="matrix(0.707107 0.707107 0.707107 -0.707107 -1388 -302)" stroke="#E36F1E" stroke-width="2"/>
<line y1="-1" x2="4330.32" y2="-1" transform="matrix(0.707107 0.707107 0.707107 -0.707107 -1388 46)" stroke="#E36F1E" stroke-width="2"/>
<line y1="-1" x2="4330.32" y2="-1" transform="matrix(0.707107 0.707107 0.707107 -0.707107 -1388 -158)" stroke="#E36F1E" stroke-width="2"/>
<line y1="-1" x2="4330.32" y2="-1" transform="matrix(0.707107 0.707107 0.707107 -0.707107 -1388 -326)" stroke="#E36F1E" stroke-width="2"/>
<line y1="-1" x2="4330.32" y2="-1" transform="matrix(0.707107 0.707107 0.707107 -0.707107 -1388 82)" stroke="#E36F1E" stroke-width="2"/>
<line y1="-1" x2="4330.32" y2="-1" transform="matrix(0.707107 0.707107 0.707107 -0.707107 -1388 94)" stroke="#E36F1E" stroke-width="2"/>
<line y1="-1" x2="4330.32" y2="-1" transform="matrix(0.707107 0.707107 0.707107 -0.707107 -1388 130)" stroke="#E36F1E" stroke-width="2"/>
<line y1="-1" x2="4330.32" y2="-1" transform="matrix(0.707107 0.707107 0.707107 -0.707107 -1388 -206)" stroke="#E36F1E" stroke-width="2"/>
<line y1="-1" x2="4330.32" y2="-1" transform="matrix(0.707107 0.707107 0.707107 -0.707107 -1388 22)" stroke="#E36F1E" stroke-width="2"/>
<line y1="-1" x2="4330.32" y2="-1" transform="matrix(0.707107 0.707107 0.707107 -0.707107 -1388 -62)" stroke="#E36F1E" stroke-width="2"/>
<line y1="-1" x2="4330.32" y2="-1" transform="matrix(0.707107 0.707107 0.707107 -0.707107 -1388 -74)" stroke="#E36F1E" stroke-width="2"/>
<line y1="-1" x2="4330.32" y2="-1" transform="matrix(0.707107 0.707107 0.707107 -0.707107 -1388 -26)" stroke="#E36F1E" stroke-width="2"/>
<line y1="-1" x2="4330.32" y2="-1" transform="matrix(0.707107 0.707107 0.707107 -0.707107 -1388 -218)" stroke="#E36F1E" stroke-width="2"/>
<line y1="-1" x2="4330.32" y2="-1" transform="matrix(0.707107 0.707107 0.707107 -0.707107 -1388 -2)" stroke="#E36F1E" stroke-width="2"/>
<line y1="-1" x2="4330.32" y2="-1" transform="matrix(0.707107 0.707107 0.707107 -0.707107 -1388 -98)" stroke="#E36F1E" stroke-width="2"/>
<line y1="-1" x2="4330.32" y2="-1" transform="matrix(0.707107 0.707107 0.707107 -0.707107 -1388 106)" stroke="#E36F1E" stroke-width="2"/>
<line y1="-1" x2="4330.32" y2="-1" transform="matrix(0.707107 0.707107 0.707107 -0.707107 -1388 -38)" stroke="#E36F1E" stroke-width="2"/>
<line y1="-1" x2="4330.32" y2="-1" transform="matrix(0.707107 0.707107 0.707107 -0.707107 -1388 -170)" stroke="#E36F1E" stroke-width="2"/>
<line y1="-1" x2="4330.32" y2="-1" transform="matrix(0.707107 0.707107 0.707107 -0.707107 -1388 10)" stroke="#E36F1E" stroke-width="2"/>
<line y1="-1" x2="4330.32" y2="-1" transform="matrix(0.707107 0.707107 0.707107 -0.707107 -1388 178)" stroke="#E36F1E" stroke-width="2"/>
<line y1="-1" x2="4330.32" y2="-1" transform="matrix(0.707107 0.707107 0.707107 -0.707107 -1388 58)" stroke="#E36F1E" stroke-width="2"/>
</g>
</g>
<rect x="44" y="102" width="40" height="80" fill="#E36F1E"/>
<rect x="150" y="81" width="40" height="101" fill="#E36F1E"/>
</svg>
