<svg width="279" height="210" viewBox="0 0 279 210" fill="none" xmlns="http://www.w3.org/2000/svg">
<rect width="279" height="210" fill="#F9F6F4"/>
<circle r="20.4397" transform="matrix(1.75019e-07 1 1 -1.75019e-07 139.002 105.001)" stroke="#E36F1E" stroke-width="2"/>
<path d="M138.999 117.327C145.807 117.327 151.326 111.808 151.326 105C151.326 98.1921 145.807 92.6731 138.999 92.6731C132.191 92.6731 126.672 98.1921 126.672 105C126.672 111.808 132.191 117.327 138.999 117.327Z" stroke="#E36F1E" stroke-width="2"/>
<path d="M139.001 133.552C154.769 133.552 167.552 120.77 167.552 105.001C167.552 89.2326 154.769 76.4497 139.001 76.4497C123.232 76.4497 110.449 89.2326 110.449 105.001C110.449 120.77 123.232 133.552 139.001 133.552Z" stroke="#E36F1E" stroke-width="2"/>
<path d="M139 141.664C159.248 141.664 175.663 125.25 175.663 105.001C175.663 84.7522 159.248 68.3374 139 68.3374C118.751 68.3374 102.336 84.7522 102.336 105.001C102.336 125.25 118.751 141.664 139 141.664Z" stroke="#E36F1E" stroke-width="2"/>
<path d="M139.002 149.777C163.731 149.777 183.778 129.73 183.778 105.002C183.778 80.2726 163.731 60.2258 139.002 60.2258C114.273 60.2258 94.2266 80.2726 94.2266 105.002C94.2266 129.73 114.273 149.777 139.002 149.777Z" stroke="#E36F1E" stroke-width="2"/>
<path d="M139.001 157.888C168.21 157.888 191.889 134.21 191.889 105C191.889 75.7912 168.21 52.1125 139.001 52.1125C109.792 52.1125 86.1133 75.7912 86.1133 105C86.1133 134.21 109.792 157.888 139.001 157.888Z" stroke="#E36F1E" stroke-width="2"/>
<path d="M139 166C172.689 166 200 138.689 200 105C200 71.3106 172.689 44 139 44C105.311 44 78 71.3106 78 105C78 138.689 105.311 166 139 166Z" stroke="#E36F1E" stroke-width="2"/>
<path d="M192.694 136C198.135 126.575 201 115.883 201 105C201 94.1167 198.135 83.4252 192.694 74C187.252 64.5748 179.425 56.7481 170 51.3064C160.575 45.8648 149.883 43 139 43L139 105L192.694 136Z" fill="#E36F1E"/>
<mask id="path-10-outside-1" maskUnits="userSpaceOnUse" x="134" y="38" width="72" height="105" fill="black">
<rect fill="white" x="134" y="38" width="72" height="105"/>
<path d="M192.694 136C198.135 126.575 201 115.883 201 105C201 94.1167 198.135 83.4252 192.694 74C187.252 64.5748 179.425 56.7481 170 51.3064C160.575 45.8648 149.883 43 139 43L139 105L192.694 136Z"/>
</mask>
<path d="M192.694 136C198.135 126.575 201 115.883 201 105C201 94.1167 198.135 83.4252 192.694 74C187.252 64.5748 179.425 56.7481 170 51.3064C160.575 45.8648 149.883 43 139 43L139 105L192.694 136Z" stroke="#F9F6F4" stroke-width="10" mask="url(#path-10-outside-1)"/>
<path d="M139 109.215C141.328 109.215 143.216 107.328 143.216 105C143.216 102.672 141.328 100.785 139 100.785C136.672 100.785 134.785 102.672 134.785 105C134.785 107.328 136.672 109.215 139 109.215Z" fill="#F9F6F4" stroke="#E36F1E" stroke-width="2"/>
</svg>
