<svg width="307" height="309" viewBox="0 0 307 309" fill="none" xmlns="http://www.w3.org/2000/svg"><mask id="a" maskUnits="userSpaceOnUse" x="0" y="0" width="307" height="309"><path fill-rule="evenodd" clip-rule="evenodd" d="M267.631 193.659l39.255-39.255-.001-.001-39.255-39.255L152.482 0l-39.255 39.255 87.463 87.463H0v55.515h200.545l-87.319 87.319 39.256 39.255L267.63 193.658l.001.001z" fill="#C4C4C4"/></mask><g mask="url(#a)" fill-rule="evenodd" clip-rule="evenodd" fill="#000"><path d="M98.74 256.307c0 9.113 7.388 16.5 16.5 16.5 9.113 0 16.5-7.387 16.5-16.5s-7.387-16.5-16.5-16.5c-9.112 0-16.5 7.387-16.5 16.5zm-2 0c0 10.217 8.283 18.5 18.5 18.5 10.218 0 18.5-8.283 18.5-18.5s-8.282-18.5-18.5-18.5c-10.217 0-18.5 8.283-18.5 18.5z"/><path d="M105.74 256.307a9.5 9.5 0 1 0 19 0 9.5 9.5 0 0 0-19 0zm-2 0c0 6.351 5.149 11.5 11.5 11.5 6.352 0 11.5-5.149 11.5-11.5s-5.148-11.5-11.5-11.5c-6.351 0-11.5 5.149-11.5 11.5z"/><path d="M112.74 256.307a2.5 2.5 0 1 0 5 0 2.5 2.5 0 0 0-5 0zm-2 0a4.5 4.5 0 1 0 9 0 4.5 4.5 0 0 0-9 0z"/><path d="M91.74 256.307c0 12.979 10.522 23.5 23.5 23.5 12.979 0 23.5-10.521 23.5-23.5s-10.521-23.5-23.5-23.5c-12.978 0-23.5 10.521-23.5 23.5zm-2 0c0 14.083 11.417 25.5 25.5 25.5 14.084 0 25.5-11.417 25.5-25.5s-11.416-25.5-25.5-25.5c-14.083 0-25.5 11.417-25.5 25.5z"/><path d="M84.74 256.307c0 16.845 13.656 30.5 30.5 30.5 16.845 0 30.5-13.655 30.5-30.5s-13.655-30.5-30.5-30.5c-16.844 0-30.5 13.655-30.5 30.5zm-2 0c0 17.949 14.551 32.5 32.5 32.5 17.95 0 32.5-14.551 32.5-32.5 0-17.949-14.55-32.5-32.5-32.5-17.949 0-32.5 14.551-32.5 32.5z"/><path d="M77.74 256.307c0 20.711 16.79 37.5 37.5 37.5 20.711 0 37.5-16.789 37.5-37.5s-16.789-37.5-37.5-37.5c-20.71 0-37.5 16.789-37.5 37.5zm-2 0c0 21.815 17.685 39.5 39.5 39.5 21.816 0 39.5-17.685 39.5-39.5s-17.684-39.5-39.5-39.5c-21.815 0-39.5 17.685-39.5 39.5z"/><path d="M70.74 256.307c0 24.577 19.924 44.5 44.5 44.5 24.577 0 44.5-19.923 44.5-44.5s-19.923-44.5-44.5-44.5c-24.576 0-44.5 19.923-44.5 44.5zm-2 0c0 25.681 20.82 46.5 46.5 46.5 25.682 0 46.5-20.819 46.5-46.5s-20.818-46.5-46.5-46.5c-25.68 0-46.5 20.819-46.5 46.5z"/><path d="M63.74 256.307c0 28.443 23.058 51.5 51.5 51.5 28.443 0 51.5-23.057 51.5-51.5s-23.057-51.5-51.5-51.5c-28.442 0-51.5 23.057-51.5 51.5zm-2 0c0 29.547 23.953 53.5 53.5 53.5 29.548 0 53.5-23.953 53.5-53.5s-23.952-53.5-53.5-53.5c-29.547 0-53.5 23.953-53.5 53.5z"/><path d="M56.74 256.307c0 32.309 26.192 58.5 58.5 58.5 32.309 0 58.5-26.191 58.5-58.5s-26.191-58.5-58.5-58.5c-32.308 0-58.5 26.191-58.5 58.5zm-2 0c0 33.413 27.087 60.5 60.5 60.5 33.414 0 60.5-27.087 60.5-60.5s-27.086-60.5-60.5-60.5c-33.413 0-60.5 27.087-60.5 60.5z"/><path d="M49.74 256.307c0 36.175 29.326 65.5 65.5 65.5 36.175 0 65.5-29.325 65.5-65.5s-29.325-65.5-65.5-65.5c-36.174 0-65.5 29.325-65.5 65.5zm-2 0c0 37.279 30.221 67.5 67.5 67.5 37.28 0 67.5-30.221 67.5-67.5 0-37.279-30.22-67.5-67.5-67.5-37.279 0-67.5 30.221-67.5 67.5z"/><path d="M42.74 256.307c0 40.041 32.46 72.5 72.5 72.5 40.041 0 72.5-32.459 72.5-72.5s-32.459-72.5-72.5-72.5c-40.04 0-72.5 32.459-72.5 72.5zm-2 0c0 41.145 33.355 74.5 74.5 74.5 41.146 0 74.5-33.355 74.5-74.5s-33.354-74.5-74.5-74.5c-41.145 0-74.5 33.355-74.5 74.5z"/><path d="M35.74 256.307c0 43.907 35.594 79.5 79.5 79.5 43.907 0 79.5-35.593 79.5-79.5s-35.593-79.5-79.5-79.5c-43.906 0-79.5 35.593-79.5 79.5zm-2 0c0 45.011 36.49 81.5 81.5 81.5 45.012 0 81.5-36.489 81.5-81.5s-36.488-81.5-81.5-81.5c-45.01 0-81.5 36.489-81.5 81.5z"/><path d="M28.74 256.307c0 47.773 38.728 86.5 86.5 86.5 47.773 0 86.5-38.727 86.5-86.5s-38.727-86.5-86.5-86.5c-47.772 0-86.5 38.727-86.5 86.5zm-2 0c0 48.877 39.623 88.5 88.5 88.5 48.878 0 88.5-39.623 88.5-88.5s-39.622-88.5-88.5-88.5c-48.877 0-88.5 39.623-88.5 88.5z"/><path d="M21.74 256.307c0 51.639 41.862 93.5 93.5 93.5 51.639 0 93.5-41.861 93.5-93.5 0-51.638-41.861-93.5-93.5-93.5-51.638 0-93.5 41.861-93.5 93.5zm-2 0c0 52.743 42.757 95.5 95.5 95.5 52.744 0 95.5-42.757 95.5-95.5s-42.756-95.5-95.5-95.5c-52.743 0-95.5 42.757-95.5 95.5z"/><path d="M14.74 256.307c0 55.505 44.996 100.5 100.5 100.5 55.505 0 100.5-44.995 100.5-100.5 0-55.504-44.995-100.5-100.5-100.5-55.504 0-100.5 44.996-100.5 100.5zm-2 0c0 56.609 45.891 102.5 102.5 102.5 56.61 0 102.5-45.891 102.5-102.5s-45.89-102.5-102.5-102.5c-56.609 0-102.5 45.891-102.5 102.5z"/><path d="M7.74 256.307c0 59.371 48.13 107.5 107.5 107.5 59.371 0 107.5-48.129 107.5-107.5 0-59.37-48.129-107.5-107.5-107.5-59.37 0-107.5 48.13-107.5 107.5zm-2 0c0 60.475 49.025 109.5 109.5 109.5 60.476 0 109.5-49.025 109.5-109.5s-49.024-109.5-109.5-109.5c-60.475 0-109.5 49.025-109.5 109.5z"/><path d="M.74 256.307c0 63.237 51.264 114.5 114.5 114.5 63.237 0 114.5-51.263 114.5-114.5 0-63.236-51.263-114.5-114.5-114.5-63.236 0-114.5 51.264-114.5 114.5zm-2 0c0 64.341 52.16 116.5 116.5 116.5 64.342 0 116.5-52.159 116.5-116.5 0-64.341-52.158-116.5-116.5-116.5-64.34 0-116.5 52.159-116.5 116.5z"/><path d="M-6.26 256.307c0 67.103 54.398 121.5 121.5 121.5 67.103 0 121.5-54.397 121.5-121.5 0-67.102-54.397-121.5-121.5-121.5-67.102 0-121.5 54.398-121.5 121.5zm-2 0c0 68.207 55.293 123.5 123.5 123.5 68.208 0 123.5-55.293 123.5-123.5s-55.292-123.5-123.5-123.5c-68.207 0-123.5 55.293-123.5 123.5z"/><path d="M-13.26 256.307c0 70.969 57.532 128.5 128.5 128.5 70.969 0 128.5-57.531 128.5-128.5 0-70.968-57.531-128.5-128.5-128.5-70.968 0-128.5 57.532-128.5 128.5zm-2 0c0 72.073 58.427 130.5 130.5 130.5 72.074 0 130.5-58.427 130.5-130.5 0-72.073-58.426-130.5-130.5-130.5-72.073 0-130.5 58.427-130.5 130.5z"/><path d="M-20.26 256.307c0 74.835 60.666 135.5 135.5 135.5 74.835 0 135.5-60.665 135.5-135.5 0-74.834-60.665-135.5-135.5-135.5-74.834 0-135.5 60.666-135.5 135.5zm-2 0c0 75.939 61.561 137.5 137.5 137.5 75.94 0 137.5-61.561 137.5-137.5s-61.56-137.5-137.5-137.5c-75.939 0-137.5 61.561-137.5 137.5z"/><path d="M-27.26 256.307c0 78.701 63.8 142.5 142.5 142.5 78.701 0 142.5-63.799 142.5-142.5 0-78.7-63.799-142.5-142.5-142.5-78.7 0-142.5 63.8-142.5 142.5zm-2 0c0 79.805 64.695 144.5 144.5 144.5 79.806 0 144.5-64.695 144.5-144.5s-64.694-144.5-144.5-144.5c-79.805 0-144.5 64.695-144.5 144.5z"/><path d="M-34.26 256.307c0 82.567 66.934 149.5 149.5 149.5 82.567 0 149.5-66.933 149.5-149.5 0-82.566-66.933-149.5-149.5-149.5-82.566 0-149.5 66.934-149.5 149.5zm-2 0c0 83.671 67.83 151.5 151.5 151.5 83.672 0 151.5-67.829 151.5-151.5s-67.828-151.5-151.5-151.5c-83.67 0-151.5 67.829-151.5 151.5z"/><path d="M-41.26 256.307c0 86.433 70.068 156.5 156.5 156.5 86.433 0 156.5-70.067 156.5-156.5 0-86.432-70.067-156.5-156.5-156.5-86.432 0-156.5 70.068-156.5 156.5zm-2 0c0 87.537 70.963 158.5 158.5 158.5 87.538 0 158.5-70.963 158.5-158.5s-70.962-158.5-158.5-158.5c-87.537 0-158.5 70.963-158.5 158.5z"/><path d="M-48.26 256.307c0 90.299 73.202 163.5 163.5 163.5 90.299 0 163.5-73.201 163.5-163.5 0-90.298-73.201-163.5-163.5-163.5-90.298 0-163.5 73.202-163.5 163.5zm-2 0c0 91.403 74.097 165.5 165.5 165.5 91.404 0 165.5-74.097 165.5-165.5s-74.096-165.5-165.5-165.5c-91.403 0-165.5 74.097-165.5 165.5z"/><path d="M-55.26 256.307c0 94.165 76.336 170.5 170.5 170.5 94.165 0 170.5-76.335 170.5-170.5 0-94.164-76.335-170.5-170.5-170.5-94.164 0-170.5 76.336-170.5 170.5zm-2 0c0 95.269 77.231 172.5 172.5 172.5 95.27 0 172.5-77.231 172.5-172.5s-77.23-172.5-172.5-172.5c-95.269 0-172.5 77.231-172.5 172.5z"/><path d="M-62.26 256.307c0 98.031 79.47 177.5 177.5 177.5 98.031 0 177.5-79.469 177.5-177.5 0-98.03-79.469-177.5-177.5-177.5-98.03 0-177.5 79.47-177.5 177.5zm-2 0c0 99.135 80.365 179.5 179.5 179.5 99.136 0 179.5-80.365 179.5-179.5s-80.364-179.5-179.5-179.5c-99.135 0-179.5 80.365-179.5 179.5z"/><path d="M-69.26 256.307c0 101.897 82.604 184.5 184.5 184.5 101.897 0 184.5-82.603 184.5-184.5 0-101.896-82.603-184.5-184.5-184.5-101.896 0-184.5 82.604-184.5 184.5zm-2 0c0 103.001 83.5 186.5 186.5 186.5 103.002 0 186.5-83.499 186.5-186.5s-83.498-186.5-186.5-186.5c-103 0-186.5 83.499-186.5 186.5z"/><path d="M-76.26 256.307c0 105.763 85.738 191.5 191.5 191.5 105.763 0 191.5-85.737 191.5-191.5 0-105.762-85.737-191.5-191.5-191.5-105.762 0-191.5 85.738-191.5 191.5zm-2 0c0 106.867 86.633 193.5 193.5 193.5 106.868 0 193.5-86.633 193.5-193.5s-86.632-193.5-193.5-193.5c-106.867 0-193.5 86.633-193.5 193.5z"/><path d="M-83.26 256.307c0 109.629 88.872 198.5 198.5 198.5 109.629 0 198.5-88.871 198.5-198.5 0-109.628-88.871-198.5-198.5-198.5-109.628 0-198.5 88.872-198.5 198.5zm-2 0c0 110.733 89.767 200.5 200.5 200.5 110.734 0 200.5-89.767 200.5-200.5s-89.766-200.5-200.5-200.5c-110.733 0-200.5 89.767-200.5 200.5z"/><path d="M-90.26 256.307c0 113.495 92.006 205.5 205.5 205.5 113.495 0 205.5-92.005 205.5-205.5 0-113.494-92.005-205.5-205.5-205.5-113.494 0-205.5 92.006-205.5 205.5zm-2 0c0 114.599 92.901 207.5 207.5 207.5 114.6 0 207.5-92.901 207.5-207.5s-92.9-207.5-207.5-207.5c-114.599 0-207.5 92.901-207.5 207.5z"/><path d="M-97.26 256.307c0 117.361 95.14 212.5 212.5 212.5 117.361 0 212.5-95.139 212.5-212.5 0-117.36-95.139-212.5-212.5-212.5-117.36 0-212.5 95.14-212.5 212.5zm-2 0c0 118.465 96.035 214.5 214.5 214.5 118.466 0 214.5-96.035 214.5-214.5s-96.034-214.5-214.5-214.5c-118.465 0-214.5 96.035-214.5 214.5z"/><path d="M-104.26 256.307c0 121.227 98.274 219.5 219.5 219.5 121.227 0 219.5-98.273 219.5-219.5 0-121.226-98.273-219.5-219.5-219.5-121.226 0-219.5 98.274-219.5 219.5zm-2 0c0 122.331 99.17 221.5 221.5 221.5 122.332 0 221.5-99.169 221.5-221.5s-99.168-221.5-221.5-221.5c-122.33 0-221.5 99.169-221.5 221.5z"/><path d="M-111.26 256.307c0 125.093 101.408 226.5 226.5 226.5 125.093 0 226.5-101.407 226.5-226.5 0-125.092-101.407-226.5-226.5-226.5-125.092 0-226.5 101.408-226.5 226.5zm-2 0c0 126.197 102.303 228.5 228.5 228.5 126.198 0 228.5-102.303 228.5-228.5s-102.302-228.5-228.5-228.5c-126.197 0-228.5 102.303-228.5 228.5z"/><path d="M-118.26 256.307c0 128.959 104.542 233.5 233.5 233.5 128.959 0 233.5-104.541 233.5-233.5 0-128.958-104.541-233.5-233.5-233.5-128.958 0-233.5 104.542-233.5 233.5zm-2 0c0 130.063 105.437 235.5 235.5 235.5 130.064 0 235.5-105.437 235.5-235.5s-105.436-235.5-235.5-235.5c-130.063 0-235.5 105.437-235.5 235.5z"/><path d="M-125.26 256.307c0 132.825 107.676 240.5 240.5 240.5 132.825 0 240.5-107.675 240.5-240.5 0-132.824-107.675-240.5-240.5-240.5-132.824 0-240.5 107.676-240.5 240.5zm-2 0c0 133.929 108.571 242.5 242.5 242.5 133.93 0 242.5-108.571 242.5-242.5s-108.57-242.5-242.5-242.5c-133.929 0-242.5 108.571-242.5 242.5z"/><path d="M-132.26 256.307c0 136.691 110.81 247.5 247.5 247.5 136.691 0 247.5-110.809 247.5-247.5 0-136.69-110.809-247.5-247.5-247.5-136.69 0-247.5 110.81-247.5 247.5zm-2 0c0 137.795 111.705 249.5 249.5 249.5 137.796 0 249.5-111.705 249.5-249.5 0-137.795-111.704-249.5-249.5-249.5-137.795 0-249.5 111.705-249.5 249.5z"/><path d="M-139.26 256.307c0 140.557 113.944 254.5 254.5 254.5 140.557 0 254.5-113.943 254.5-254.5 0-140.556-113.943-254.5-254.5-254.5-140.556 0-254.5 113.944-254.5 254.5zm-2 0c0 141.661 114.84 256.5 256.5 256.5 141.661 0 256.5-114.839 256.5-256.5S256.902-.193 115.24-.193c-141.66 0-256.5 114.839-256.5 256.5z"/><path d="M-146.26 256.307c0 144.423 117.078 261.5 261.5 261.5 144.423 0 261.5-117.077 261.5-261.5 0-144.422-117.077-261.5-261.5-261.5-144.422 0-261.5 117.078-261.5 261.5zm-2 0c0 145.527 117.973 263.5 263.5 263.5s263.5-117.973 263.5-263.5-117.972-263.5-263.5-263.5c-145.527 0-263.5 117.973-263.5 263.5z"/><path d="M-153.26 256.307c0 148.289 120.212 268.5 268.5 268.5 148.289 0 268.5-120.211 268.5-268.5 0-148.288-120.211-268.5-268.5-268.5-148.288 0-268.5 120.212-268.5 268.5zm-2 0c0 149.393 121.107 270.5 270.5 270.5s270.5-121.107 270.5-270.5-121.106-270.5-270.5-270.5c-149.393 0-270.5 121.107-270.5 270.5z"/><path d="M-160.26 256.307c0 152.155 123.346 275.5 275.5 275.5 152.155 0 275.5-123.345 275.5-275.5 0-152.154-123.345-275.5-275.5-275.5-152.154 0-275.5 123.346-275.5 275.5zm-2 0c0 153.259 124.241 277.5 277.5 277.5 153.259 0 277.5-124.241 277.5-277.5 0-153.259-124.241-277.5-277.5-277.5-153.259 0-277.5 124.241-277.5 277.5z"/><path d="M-167.26 256.307c0 156.021 126.48 282.5 282.5 282.5 156.021 0 282.5-126.479 282.5-282.5 0-156.02-126.479-282.5-282.5-282.5-156.02 0-282.5 126.48-282.5 282.5zm-2 0c0 157.125 127.375 284.5 284.5 284.5s284.5-127.375 284.5-284.5-127.375-284.5-284.5-284.5-284.5 127.375-284.5 284.5z"/><path d="M-174.26 256.307c0 159.887 129.614 289.5 289.5 289.5 159.887 0 289.5-129.613 289.5-289.5 0-159.886-129.613-289.5-289.5-289.5-159.886 0-289.5 129.614-289.5 289.5zm-2 0c0 160.991 130.51 291.5 291.5 291.5 160.991 0 291.5-130.509 291.5-291.5 0-160.99-130.509-291.5-291.5-291.5-160.99 0-291.5 130.51-291.5 291.5z"/><path d="M-181.26 256.307c0 163.753 132.748 296.5 296.5 296.5 163.753 0 296.5-132.747 296.5-296.5 0-163.752-132.747-296.5-296.5-296.5-163.752 0-296.5 132.748-296.5 296.5zm-2 0c0 164.857 133.643 298.5 298.5 298.5s298.5-133.643 298.5-298.5-133.643-298.5-298.5-298.5c-164.856 0-298.5 133.643-298.5 298.5z"/><path d="M-188.26 256.307c0 167.619 135.882 303.5 303.5 303.5 167.619 0 303.5-135.881 303.5-303.5 0-167.618-135.881-303.5-303.5-303.5-167.618 0-303.5 135.882-303.5 303.5zm-2 0c0 168.723 136.777 305.5 305.5 305.5s305.5-136.777 305.5-305.5-136.777-305.5-305.5-305.5-305.5 136.777-305.5 305.5z"/><path d="M-195.26 256.307c0 171.485 139.016 310.5 310.5 310.5 171.485 0 310.5-139.015 310.5-310.5 0-171.484-139.015-310.5-310.5-310.5-171.484 0-310.5 139.016-310.5 310.5zm-2 0c0 172.589 139.911 312.5 312.5 312.5s312.5-139.911 312.5-312.5-139.911-312.5-312.5-312.5-312.5 139.911-312.5 312.5z"/><path d="M-202.26 256.307c0 175.351 142.15 317.5 317.5 317.5 175.351 0 317.5-142.149 317.5-317.5 0-175.35-142.149-317.5-317.5-317.5-175.35 0-317.5 142.15-317.5 317.5zm-2 0c0 176.455 143.046 319.5 319.5 319.5 176.455 0 319.5-143.045 319.5-319.5s-143.045-319.5-319.5-319.5c-176.454 0-319.5 143.045-319.5 319.5z"/><path d="M-209.26 256.307c0 179.217 145.284 324.5 324.5 324.5 179.217 0 324.5-145.283 324.5-324.5 0-179.216-145.283-324.5-324.5-324.5-179.216 0-324.5 145.284-324.5 324.5zm-2 0c0 180.321 146.18 326.5 326.5 326.5 180.321 0 326.5-146.179 326.5-326.5 0-180.32-146.179-326.5-326.5-326.5-180.32 0-326.5 146.18-326.5 326.5z"/><path d="M-216.26 256.307c0 183.082 148.418 331.5 331.5 331.5 183.083 0 331.5-148.417 331.5-331.5 0-183.082-148.417-331.5-331.5-331.5-183.082 0-331.5 148.418-331.5 331.5zm-2 0c0 184.187 149.313 333.5 333.5 333.5s333.5-149.313 333.5-333.5-149.313-333.5-333.5-333.5-333.5 149.313-333.5 333.5z"/><path d="M-223.26 256.307c0 186.948 151.552 338.5 338.5 338.5 186.949 0 338.5-151.552 338.5-338.5s-151.551-338.5-338.5-338.5c-186.948 0-338.5 151.552-338.5 338.5zm-2 0c0 188.053 152.447 340.5 340.5 340.5s340.5-152.447 340.5-340.5-152.447-340.5-340.5-340.5-340.5 152.447-340.5 340.5z"/><path d="M-230.26 256.307c0 190.814 154.686 345.5 345.5 345.5 190.815 0 345.5-154.685 345.5-345.5 0-190.814-154.685-345.5-345.5-345.5-190.814 0-345.5 154.686-345.5 345.5zm-2 0c0 191.919 155.582 347.5 347.5 347.5 191.919 0 347.5-155.581 347.5-347.5s-155.581-347.5-347.5-347.5c-191.918 0-347.5 155.581-347.5 347.5z"/><path d="M-237.26 256.307c0 194.68 157.82 352.5 352.5 352.5 194.681 0 352.5-157.82 352.5-352.5s-157.819-352.5-352.5-352.5c-194.68 0-352.5 157.82-352.5 352.5zm-2 0c0 195.785 158.715 354.5 354.5 354.5s354.5-158.715 354.5-354.5-158.715-354.5-354.5-354.5c-195.784 0-354.5 158.715-354.5 354.5z"/></g></svg>