<svg xmlns="http://www.w3.org/2000/svg" width="100" height="100" viewBox="0 0 100 100"><g data-name="Group 273"><path data-name="Path 258" d="M50 100A50 50 0 1 0 0 50a50 50 0 0 0 50 50z" fill="#1a99d6"/><path data-name="Path 260" d="M50.1 69.8a20.6 20.6 0 1 0-20.6-20.6 20.6 20.6 0 0 0 20.6 20.6z" fill="none" stroke="#fff" stroke-miterlimit="10" stroke-width="2.5"/><path data-name="Path 261" d="M29.5 49.2s10.3 3.4 20.6-6.9c0 0 9.7 11.4 20.6 6.9" fill="none" stroke="#fff" stroke-miterlimit="10" stroke-width="2.5"/><path data-name="Path 262" d="M50 22.2v-11" fill="none" stroke="#fff" stroke-miterlimit="10" stroke-width="2.5"/><path data-name="Path 263" d="M36.5 25.8L31 16.3" fill="none" stroke="#fff" stroke-miterlimit="10" stroke-width="2.5"/><path data-name="Path 264" d="M73.4 35.7l9.5-5.5" fill="none" stroke="#fff" stroke-miterlimit="10" stroke-width="2.5"/><path data-name="Path 265" d="M26.6 35.7l-9.5-5.5" fill="none" stroke="#fff" stroke-miterlimit="10" stroke-width="2.5"/><path data-name="Path 266" d="M63.5 25.8l5.5-9.5" fill="none" stroke="#fff" stroke-miterlimit="10" stroke-width="2.5"/><path data-name="Path 267" d="M38.6 65.8c-4 12.8-16.8 8.2-16.8 8.2 8-11.2 7.6-24.8 7.6-24.8" fill="none" stroke="#fff" stroke-miterlimit="10" stroke-width="2.5"/><path data-name="Path 268" d="M61.4 66c4 12.8 16.8 8.2 16.8 8.2-8-11.2-7.6-24.8-7.6-24.8" fill="none" stroke="#fff" stroke-miterlimit="10" stroke-width="2.5"/></g></svg>