<svg xmlns="http://www.w3.org/2000/svg" width="75" height="75" viewBox="0 0 75 75" fill="none"><path d="M37.426.075c20.7 0 37.5 16.8 37.5 37.5s-16.8 37.5-37.5 37.5-37.5-16.8-37.5-37.5 16.8-37.5 37.5-37.5z" fill="#7e9255"/><path d="M36.975 58.8c-12 0-21.825-9.75-21.825-21.825 0-12 9.75-21.825 21.825-21.825 12 0 21.825 9.75 21.825 21.825S48.975 58.8 36.975 58.8zm0-41.7c-11.025 0-19.95 8.925-19.95 19.95 0 11.025 8.925 19.95 19.95 19.95 11.025 0 19.95-9 19.95-20.025C56.925 25.95 48 17.1 36.975 17.1z" fill="#fff"/><path d="M26.4 55.125c-.45 0-.975-.15-1.35-.375-2.025-1.125-2.925-5.4-3-6.525-.075-.975-.3-1.95-.75-2.175l-.15-.075c-4.65-2.55-5.1-5.025-4.65-6.75.375-1.35 1.125-1.8 1.65-2.175.375-.225.525-.375.6-.75v-.15c.15-.75.45-2.25 1.8-2.55 3.075-.75 3.825 1.2 4.125 2.1.075.15.15.45.225.525.3.225.6.225 1.125.225.675 0 1.65 0 2.475 1.05.3.375.375.825.375 1.2.075.75.15 1.5 2.475 1.725 1.575.15 2.7 1.05 3.075 2.4.6 2.325-.975 5.55-2.025 6.3a3.786 3.786 0 0 1-2.1.675c-.075 2.175-.9 3.9-2.25 4.725-.45.45-1.05.6-1.65.6zm-.45-1.95c.375.15.825.15 1.2-.075.45-.225 1.35-1.125 1.35-3.6 0-1.275 1.275-1.35 1.65-1.35s.825-.075 1.2-.3c.525-.375 1.725-2.775 1.275-4.35-.15-.45-.375-.9-1.425-1.05-3.45-.375-4.05-1.95-4.125-3.45v-.3c-.225-.3-.45-.3-.9-.3-.6 0-1.425 0-2.25-.6-.45-.375-.675-.9-.825-1.35-.3-.9-.45-1.275-1.95-.975-.225.075-.3.75-.375 1.125v.15c-.225 1.2-.9 1.65-1.425 2.025-.45.3-.675.45-.825 1.05-.3 1.05.15 2.7 3.675 4.575l.15.075c1.2.675 1.5 2.175 1.65 3.6.075 1.725 1.05 4.575 1.95 5.1zm25.126-.45c-.45 0-.9-.15-1.2-.375-.375-.225-.975-.9-.825-2.175a8.29 8.29 0 0 1 .375-1.8c.075-.225.15-.525.15-.675 0 0-.675-1.95-.075-2.925.15-.225.3-.375.45-.6.15-.15.525-.525.525-.675-.075-.6-.3-1.425-.45-1.575-.675-.6-.75-1.8-.675-2.4-.15-.3-.75-.9-1.35-.825-.15 0-.45.15-.75.225-.45.225-1.05.45-1.725.525-1.35.15-4.275-1.05-5.4-3.75-.3-.75-.375-3.375-.3-3.975.225-1.875 1.275-2.4 1.875-2.7.525-.225.675-.3.675-1.125 0-.15-.225-.525-.375-.675-2.025-1.425-1.95-3.3-1.2-4.575.525-.9 1.425-1.5 2.55-1.8 3.075-.75 3.225-2.175 3.225-2.25h1.875c0 .15 0 2.925-4.65 4.05-.675.15-1.125.45-1.35.9-.45.75-.225 1.5.675 2.1.675.45 1.2 1.425 1.2 2.175 0 1.95-.975 2.475-1.65 2.775-.525.225-.75.375-.9 1.275-.075.45.075 2.625.225 3 .75 1.875 2.925 2.625 3.45 2.55.375 0 .75-.225 1.2-.375.375-.15.825-.375 1.275-.375.9-.075 1.875.3 2.7 1.125.3.375.825 1.05.75 1.725-.075.3 0 .675.075.9.825.75 1.05 2.775 1.05 2.775.075.975-.525 1.725-.975 2.175l-.225.225c-.075.3.075 1.05.225 1.5.15.525 0 1.05-.15 1.725-.15.45-.225.9-.3 1.5 0 .3 0 .375.075.375.075.075.3.075.6-.075l.825 1.65c-.6.375-1.05.45-1.5.45z" fill="#fff"/><path d="M56.85 34.875c-.225-1.2-1.35-2.175-2.25-2.925-.525-.45-.9-.825-1.125-1.2-.9-2.175-2.4-2.25-3.825-2.1h-.525c-2.175.075-3.675-.825-4.125-2.475-.225-.9 0-1.875.675-2.4.525-.45 1.2-.525 1.8-.3.3.15.525.225.825.3.45.15.9.3 1.5.6.375.225.675.375 1.5-.225.075-.075.15-.225.15-.45 0-.3-.15-.6-.3-.75l1.05-1.575c.675.45 1.125 1.35 1.125 2.325 0 .9-.375 1.65-.975 2.025-1.275.825-2.25.9-3.45.3-.375-.225-.75-.3-1.2-.45-.3-.075-.525-.15-.825-.3-.075.075-.075.225 0 .375.075.3.375 1.2 2.25 1.125h.45c1.125-.15 4.2-.45 5.775 3.225.075.075.375.3.6.525.975.825 2.475 2.175 2.85 4.05zm-38.4.3c-1.65 0-2.55-1.35-2.85-2.1l1.725-.675c0 .075.375.9 1.125.9.075-.075.075-.3 0-.525-.075-.3-.3-.675-.45-1.05-.375-.9-.525-1.2-.525-1.575v-.225c.225-.9.375-1.65 1.05-1.875.6-.225 1.05.15 1.35.375.3.225.45.375.825.15.15-.225.225-.6.3-.975.075-.525.225-1.125.525-1.575.375-.525 1.725-2.175 3.9-2.7.375-.075 2.4-1.2 2.85-1.575.45-.375.825-.825.9-1.125v-.15c-.225 0-.525 0-.75-.075-.825 0-1.8 0-2.1-.9-.375-.825.45-1.65.75-1.95l.9.9h.525c.825 0 1.725 0 2.175.675.375.525.525 1.05.45 1.65-.15 1.125-1.05 1.95-1.575 2.325-.525.375-2.85 1.725-3.6 1.875-1.65.375-2.625 1.65-2.85 1.95-.075.075-.15.525-.225.75-.15.675-.3 1.5-.9 2.1l-.15.15c-.975.525-1.725.45-2.325.225.075.225.15.45.225.6.225.45.375.825.525 1.2.225.675.15 1.5-.225 2.1-.3.45-.75.75-1.275.825 0 .3-.15.3-.3.3zm47.175 11.85C65.625 54.3 54 60.15 54 60.15S42.375 54.3 42.375 47.025 49.05 38.55 54 43.425c4.875-4.875 11.625-3.675 11.625 3.6z" fill="#fff"/><path d="M54 61.2l-.45-.225c-.525-.225-12.15-6.225-12.15-13.95 0-3.45 1.425-6 3.9-6.975 2.625-1.05 5.925-.225 8.7 2.175 2.7-2.4 6.075-3.225 8.7-2.175 2.475 1.05 3.9 3.6 3.9 6.975 0 7.725-11.625 13.725-12.15 13.95zm-6.225-19.8c-.6 0-1.2.075-1.725.3-1.8.75-2.775 2.625-2.775 5.25C43.275 52.8 51.9 57.9 54 59.025 56.025 57.9 64.725 52.8 64.725 46.95c0-2.625-.975-4.5-2.775-5.25-2.1-.9-4.95.075-7.275 2.325l-.675.75-.675-.675c-1.725-1.725-3.75-2.7-5.55-2.7z" fill="#fff"/></svg>