<svg xmlns="http://www.w3.org/2000/svg" width="100" height="100" viewBox="0 0 100 100"><g data-name="Group 272"><path data-name="Path 269" d="M50 100A50 50 0 1 0 0 50a50 50 0 0 0 50 50z" fill="#ccdb2a"/><path data-name="Path 270" d="M50 37s-4.9-4.7-4.9-10.5S50 16 50 16s4.9 4.7 4.9 10.5S50 37 50 37z" fill="none" stroke="#fff" stroke-miterlimit="10" stroke-width="2.5"/><path data-name="Path 271" d="M50 34.9v54.4" fill="none" stroke="#fff" stroke-miterlimit="10" stroke-width="2.5"/><path data-name="Path 272" d="M50 10.7v6.7" fill="none" stroke="#fff" stroke-miterlimit="10" stroke-width="2.5"/><path data-name="Path 273" d="M49.4 84.2s-7.7-.6-12.1-5.1-4-11-4-11 7.7.6 12.1 5.1 4 11 4 11z" fill="none" stroke="#fff" stroke-miterlimit="10" stroke-width="2.5"/><path data-name="Path 274" d="M33.3 68.2v-4.6" fill="none" stroke="#fff" stroke-miterlimit="10" stroke-width="2.5"/><path data-name="Path 275" d="M49.4 66.7s-7.7-.7-12.1-5.1-4-11-4-11 7.7.6 12.1 5.1 4 11 4 11z" fill="none" stroke="#fff" stroke-miterlimit="10" stroke-width="2.5"/><path data-name="Path 276" d="M33.3 50.7V46" fill="none" stroke="#fff" stroke-miterlimit="10" stroke-width="2.5"/><path data-name="Path 277" d="M49.4 49.1s-7.7-.6-12.1-5.1-4-11-4-11 7.7.6 12.1 5.1 4 11 4 11z" fill="none" stroke="#fff" stroke-miterlimit="10" stroke-width="2.5"/><path data-name="Path 278" d="M33.3 33.2v-4.7" fill="none" stroke="#fff" stroke-miterlimit="10" stroke-width="2.5"/><path data-name="Path 279" d="M50.6 84.2s7.7-.6 12.1-5.1 4-11 4-11-7.7.6-12.2 5.1-3.9 11-3.9 11z" fill="none" stroke="#fff" stroke-miterlimit="10" stroke-width="2.5"/><path data-name="Path 280" d="M66.7 68.2v-4.6" fill="none" stroke="#fff" stroke-miterlimit="10" stroke-width="2.5"/><path data-name="Path 281" d="M50.6 66.7s7.7-.7 12.1-5.1 4-11 4-11-7.7.6-12.1 5.1-4 11-4 11z" fill="none" stroke="#fff" stroke-miterlimit="10" stroke-width="2.5"/><path data-name="Path 282" d="M66.7 50.7V46" fill="none" stroke="#fff" stroke-miterlimit="10" stroke-width="2.5"/><path data-name="Path 283" d="M50.6 49.1s7.7-.6 12.1-5.1 4-11 4-11-7.7.6-12.1 5.1-4 11-4 11z" fill="none" stroke="#fff" stroke-miterlimit="10" stroke-width="2.5"/><path data-name="Path 284" d="M66.7 33.2v-4.7" fill="none" stroke="#fff" stroke-miterlimit="10" stroke-width="2.5"/></g></svg>