<svg xmlns="http://www.w3.org/2000/svg" width="100" height="100" viewBox="0 0 100 100"><g data-name="Group 271"><path data-name="Path 285" d="M50 100A50 50 0 1 0 0 50a50 50 0 0 0 50 50z" fill="#b783ba"/><path data-name="Path 286" d="M34.2 26.2a12.6 12.6 0 1 1 12.6 12.6" fill="none" stroke="#fff" stroke-miterlimit="10" stroke-width="2.5"/><path data-name="Path 287" d="M37.5 60.3v24" fill="none" stroke="#fff" stroke-miterlimit="10" stroke-width="2.5"/><path data-name="Path 290" d="M58.2 82.9h.1c8.5 0 15.3-7.5 15.3-16.8s-6.9-16.8-15.3-16.8h-.1c0-5.8-4.3-10.5-9.5-10.5h-6.6" fill="none" stroke="#fff" stroke-miterlimit="10" stroke-width="2.5"/><path data-name="Path 288" d="M44 50.4a85.368 85.368 0 0 0 1.8 10.1c.7 2.4 6.8 2.5 12.4 2.5a3.585 3.585 0 0 1 3.6 3.6v.3a3.6 3.6 0 0 1-3.6 3.3c-6.4-.1-16.2 0-18.4-4.2-2.9-5.5-4.5-14.5-4.5-14.5a9.889 9.889 0 0 1 3-7.8" fill="none" stroke="#fff" stroke-miterlimit="10" stroke-width="2.5"/><path data-name="Path 289" d="M34.2 26.2c0 6.2.1 9.8-.6 14.1a32.277 32.277 0 0 1-1.4 5.1c14.4 0 10.4-20.7 10.4-20.7s10 2.4 14.8-5.9" fill="none" stroke="#fff" stroke-miterlimit="10" stroke-width="2.5"/></g></svg>