<svg xmlns="http://www.w3.org/2000/svg" width="75" height="75" viewBox="0 0 75 75" fill="none"><path d="M37.5 0C58.2 0 75 16.8 75 37.5S58.2 75 37.5 75 0 58.2 0 37.5 16.8 0 37.5 0z" fill="#512873"/><path d="M33.375 52.5C24.9 52.5 18 45.6 18 37.125S24.9 21.75 33.375 21.75s15.375 6.9 15.375 15.375S41.775 52.5 33.375 52.5zm0-28.8c-7.425 0-13.5 6.075-13.5 13.5s6.075 13.5 13.5 13.5 13.5-6.075 13.5-13.5-6.075-13.5-13.5-13.5z" fill="#fff"/><path d="M34.275 52.35H32.4v15.9h1.875z" fill="#fff"/><path d="M41.174 59.925h-15.6V61.8h15.6zM41.25 33.9h-15.6v1.875h15.6zm0 6.375h-15.6v1.875h15.6zm13.865-26.589L42.652 26.148l1.326 1.326 12.463-12.462z" fill="#fff"/><path d="M57 27.375h-1.875V14.85h-12.6v-1.875H57z" fill="#fff"/></svg>